Varta-Light.ufo
<glyph name="equal" format="1">
  <advance width="1003"/>
  <unicode hex="003D"/>
  <outline>
    <contour>
      <point x="70" y="837" type="line" name="hr00"/>
      <point x="933" y="837" type="line"/>
      <point x="933" y="944" type="line"/>
      <point x="70" y="944" type="line"/>
    </contour>
    <contour>
      <point x="70" y="407" type="line"/>
      <point x="933" y="407" type="line"/>
      <point x="933" y="514" type="line"/>
      <point x="70" y="514" type="line"/>
    </contour>
  </outline>
</glyph>
<glyph name="T" format="1">
  <advance width="1076"/>
  <unicode hex="0054"/>
  <outline>
    <contour>
      <point x="469" y="0" type="line"/>
      <point x="608" y="0" type="line"/>
      <point x="608" y="1228" type="line"/>
      <point x="1024" y="1228" type="line"/>
      <point x="1024" y="1346" type="line"/>
      <point x="52" y="1346" type="line"/>
      <point x="52" y="1228" type="line"/>
      <point x="469" y="1228" type="line"/>
    </contour>
    <contour>
      <point x="538" y="761" type="move" name="center"/>
    </contour>
    <contour>
      <point x="538" y="0" type="move" name="bottom"/>
    </contour>
    <contour>
      <point x="538" y="1050" type="move" name="top"/>
    </contour>
  </outline>
</glyph>
<glyph name="Y" format="1">
  <advance width="939"/>
  <unicode hex="0059"/>
  <outline>
    <contour>
      <point x="399" y="0" type="line"/>
      <point x="539" y="0" type="line"/>
      <point x="539" y="531" type="line"/>
      <point x="943" y="1346" type="line"/>
      <point x="800" y="1346" type="line"/>
      <point x="613" y="950" type="line"/>
      <point x="571" y="851"/>
      <point x="521" y="757"/>
      <point x="474" y="658" type="curve"/>
      <point x="465" y="658" type="line"/>
      <point x="417" y="757"/>
      <point x="374" y="851"/>
      <point x="330" y="950" type="curve" smooth="yes"/>
      <point x="144" y="1346" type="line"/>
      <point x="-6" y="1346" type="line"/>
      <point x="399" y="531" type="line"/>
    </contour>
    <contour>
      <point x="468" y="1050" type="move" name="top"/>
    </contour>
  </outline>
</glyph>
<glyph name="Z" format="1">
  <advance width="1091"/>
  <unicode hex="005A"/>
  <outline>
    <contour>
      <point x="89" y="0" type="line" name="hr00"/>
      <point x="1006" y="0" type="line"/>
      <point x="1006" y="119" type="line"/>
      <point x="263" y="119" type="line"/>
      <point x="999" y="1264" type="line"/>
      <point x="999" y="1346" type="line"/>
      <point x="156" y="1346" type="line"/>
      <point x="156" y="1228" type="line"/>
      <point x="827" y="1228" type="line"/>
      <point x="89" y="83" type="line"/>
    </contour>
    <contour>
      <point x="565" y="1050" type="move" name="top"/>
    </contour>
  </outline>
</glyph>
<glyph name="bracketleft" format="1">
  <advance width="600"/>
  <unicode hex="005B"/>
  <outline>
    <contour>
      <point x="196" y="-311" type="line" name="hr00"/>
      <point x="546" y="-311" type="line"/>
      <point x="546" y="-230" type="line"/>
      <point x="300" y="-230" type="line"/>
      <point x="300" y="1366" type="line"/>
      <point x="546" y="1366" type="line"/>
      <point x="546" y="1450" type="line"/>
      <point x="196" y="1450" type="line"/>
    </contour>
  </outline>
</glyph>
<glyph name="backslash" format="1">
  <advance width="723"/>
  <unicode hex="005C"/>
  <outline>
    <contour>
      <point x="598" y="-328" type="line" name="hr00"/>
      <point x="704" y="-328" type="line"/>
      <point x="125" y="1454" type="line"/>
      <point x="21" y="1454" type="line"/>
    </contour>
  </outline>
</glyph>
<glyph name="m" format="1">
  <advance width="1684"/>
  <unicode hex="006D"/>
  <outline>
    <contour>
      <point x="176" y="0" type="line"/>
      <point x="313" y="0" type="line"/>
      <point x="313" y="729" type="line"/>
      <point x="411" y="840"/>
      <point x="501" y="895"/>
      <point x="581" y="895" type="curve" smooth="yes"/>
      <point x="724" y="895"/>
      <point x="781" y="811"/>
      <point x="781" y="615" type="curve" smooth="yes"/>
      <point x="781" y="0" type="line"/>
      <point x="917" y="0" type="line"/>
      <point x="917" y="732" type="line"/>
      <point x="1016" y="843"/>
      <point x="1102" y="895"/>
      <point x="1186" y="895" type="curve" smooth="yes"/>
      <point x="1327" y="895"/>
      <point x="1384" y="811"/>
      <point x="1384" y="615" type="curve" smooth="yes"/>
      <point x="1384" y="0" type="line"/>
      <point x="1521" y="0" type="line"/>
      <point x="1521" y="634" type="line"/>
      <point x="1521" y="888"/>
      <point x="1429" y="1015"/>
      <point x="1221" y="1015" type="curve" smooth="yes"/>
      <point x="1104" y="1015"/>
      <point x="999" y="940"/>
      <point x="891" y="823" type="curve"/>
      <point x="852" y="943"/>
      <point x="777" y="1015"/>
      <point x="618" y="1015" type="curve" smooth="yes"/>
      <point x="503" y="1015"/>
      <point x="396" y="940"/>
      <point x="309" y="843" type="curve"/>
      <point x="302" y="843" type="line"/>
      <point x="290" y="990" type="line"/>
      <point x="176" y="990" type="line"/>
    </contour>
    <contour>
      <point x="848" y="1050" type="move" name="top"/>
    </contour>
  </outline>
</glyph>
<glyph name="n" format="1">
  <advance width="1108"/>
  <unicode hex="006E"/>
  <outline>
    <contour>
      <point x="176" y="0" type="line"/>
      <point x="313" y="0" type="line"/>
      <point x="313" y="729" type="line"/>
      <point x="421" y="839"/>
      <point x="497" y="895"/>
      <point x="605" y="895" type="curve" smooth="yes"/>
      <point x="754" y="895"/>
      <point x="808" y="811"/>
      <point x="808" y="615" type="curve" smooth="yes"/>
      <point x="808" y="0" type="line"/>
      <point x="944" y="0" type="line"/>
      <point x="944" y="634" type="line"/>
      <point x="944" y="888"/>
      <point x="856" y="1015"/>
      <point x="644" y="1015" type="curve" smooth="yes"/>
      <point x="507" y="1015"/>
      <point x="405" y="940"/>
      <point x="309" y="843" type="curve"/>
      <point x="302" y="843" type="line"/>
      <point x="290" y="990" type="line"/>
      <point x="176" y="990" type="line"/>
    </contour>
    <contour>
      <point x="560" y="1050" type="move" name="top"/>
    </contour>
  </outline>
</glyph>
<glyph name="t" format="1">
  <advance width="670"/>
  <unicode hex="0074"/>
  <outline>
    <contour>
      <point x="203" y="293" type="line"/>
      <point x="203" y="105"/>
      <point x="267" y="-25"/>
      <point x="471" y="-25" type="curve" smooth="yes"/>
      <point x="525" y="-25"/>
      <point x="589" y="-7"/>
      <point x="645" y="12" type="curve"/>
      <point x="616" y="117" type="line"/>
      <point x="582" y="104"/>
      <point x="535" y="89"/>
      <point x="499" y="89" type="curve" smooth="yes"/>
      <point x="376" y="89"/>
      <point x="341" y="164"/>
      <point x="341" y="288" type="curve" smooth="yes"/>
      <point x="341" y="877" type="line"/>
      <point x="616" y="877" type="line"/>
      <point x="616" y="990" type="line"/>
      <point x="341" y="990" type="line"/>
      <point x="341" y="1272" type="line"/>
      <point x="225" y="1272" type="line"/>
      <point x="208" y="990" type="line"/>
      <point x="52" y="981" type="line"/>
      <point x="52" y="877" type="line"/>
      <point x="203" y="877" type="line"/>
    </contour>
    <contour>
      <point x="348" y="1050" type="move" name="top"/>
    </contour>
  </outline>
</glyph>
<glyph name="yen" format="1">
  <advance width="1003"/>
  <unicode hex="00A5"/>
  <outline>
    <contour>
      <point x="53" y="1308" type="line" name="hr00"/>
      <point x="395" y="639" type="line"/>
      <point x="96" y="639" type="line"/>
      <point x="96" y="554" type="line"/>
      <point x="431" y="554" type="line"/>
      <point x="431" y="416" type="line"/>
      <point x="96" y="416" type="line"/>
      <point x="96" y="330" type="line"/>
      <point x="431" y="330" type="line"/>
      <point x="431" y="0" type="line"/>
      <point x="569" y="0" type="line"/>
      <point x="569" y="330" type="line"/>
      <point x="907" y="330" type="line"/>
      <point x="907" y="416" type="line"/>
      <point x="569" y="416" type="line"/>
      <point x="569" y="554" type="line"/>
      <point x="907" y="554" type="line"/>
      <point x="907" y="639" type="line"/>
      <point x="605" y="639" type="line"/>
      <point x="950" y="1308" type="line"/>
      <point x="810" y="1308" type="line"/>
      <point x="637" y="938" type="line"/>
      <point x="593" y="848"/>
      <point x="554" y="758"/>
      <point x="507" y="661" type="curve"/>
      <point x="498" y="661" type="line"/>
      <point x="453" y="758"/>
      <point x="412" y="848"/>
      <point x="370" y="938" type="curve" smooth="yes"/>
      <point x="197" y="1308" type="line"/>
    </contour>
  </outline>
</glyph>
<glyph name="AE" format="1">
  <advance width="1660"/>
  <unicode hex="00C6"/>
  <outline>
    <contour>
      <point x="445" y="526" type="line" name="hr01"/>
      <point x="579" y="780" type="line"/>
      <point x="657" y="932"/>
      <point x="739" y="1085"/>
      <point x="816" y="1233" type="curve" name="hr02"/>
      <point x="824" y="1233" type="line"/>
      <point x="824" y="526" type="line"/>
    </contour>
    <contour>
      <point x="963" y="119" type="line"/>
      <point x="963" y="651" type="line"/>
      <point x="1450" y="651" type="line"/>
      <point x="1450" y="770" type="line"/>
      <point x="963" y="770" type="line"/>
      <point x="963" y="1228" type="line" name="hr03"/>
      <point x="1549" y="1228" type="line"/>
      <point x="1549" y="1346" type="line"/>
      <point x="744" y="1346" type="line"/>
      <point x="22" y="0" type="line"/>
      <point x="165" y="0" type="line"/>
      <point x="384" y="413" type="line"/>
      <point x="824" y="413" type="line"/>
      <point x="824" y="0" type="line"/>
      <point x="1569" y="0" type="line"/>
      <point x="1569" y="119" type="line"/>
    </contour>
    <contour>
      <point x="896" y="1050" type="move" name="top"/>
    </contour>
  </outline>
</glyph>
<glyph name="Ccedilla" format="1">
  <advance width="1152"/>
  <unicode hex="00C7"/>
  <outline>
    <contour>
      <point x="1007" y="255" type="line" name="hr00"/>
      <point x="916" y="153"/>
      <point x="818" y="99"/>
      <point x="686" y="99" type="curve" smooth="yes"/>
      <point x="416" y="99"/>
      <point x="246" y="324"/>
      <point x="246" y="677" type="curve" smooth="yes"/>
      <point x="246" y="1028"/>
      <point x="422" y="1247"/>
      <point x="694" y="1247" type="curve" smooth="yes"/>
      <point x="810" y="1247"/>
      <point x="901" y="1195"/>
      <point x="973" y="1117" type="curve"/>
      <point x="1053" y="1206" type="line"/>
      <point x="976" y="1292"/>
      <point x="852" y="1370"/>
      <point x="693" y="1370" type="curve" smooth="yes"/>
      <point x="349" y="1370"/>
      <point x="102" y="1105"/>
      <point x="102" y="674" type="curve" smooth="yes"/>
      <point x="102" y="254"/>
      <point x="331" y="-7"/>
      <point x="649" y="-24" type="curve"/>
      <point x="581" y="-153" type="line"/>
      <point x="663" y="-173"/>
      <point x="714" y="-200"/>
      <point x="714" y="-256" type="curve" smooth="yes"/>
      <point x="714" y="-312"/>
      <point x="638" y="-342"/>
      <point x="529" y="-357" type="curve"/>
      <point x="544" y="-432" type="line"/>
      <point x="690" y="-417"/>
      <point x="825" y="-363"/>
      <point x="825" y="-250" type="curve" smooth="yes"/>
      <point x="825" y="-166"/>
      <point x="769" y="-128"/>
      <point x="702" y="-106" type="curve"/>
      <point x="746" y="-21" type="line"/>
      <point x="886" y="-5"/>
      <point x="997" y="63"/>
      <point x="1087" y="169" type="curve"/>
    </contour>
  </outline>
</glyph>
<glyph name="Eth" format="1">
  <advance width="1280"/>
  <unicode hex="00D0"/>
  <outline>
    <contour>
      <point x="362" y="115" type="line"/>
      <point x="362" y="666" type="line"/>
      <point x="684" y="666" type="line"/>
      <point x="684" y="752" type="line"/>
      <point x="362" y="752" type="line"/>
      <point x="362" y="1231" type="line"/>
      <point x="537" y="1231" type="line"/>
      <point x="872" y="1231"/>
      <point x="1031" y="1022"/>
      <point x="1031" y="679" type="curve" smooth="yes"/>
      <point x="1031" y="334"/>
      <point x="872" y="115"/>
      <point x="537" y="115" type="curve" smooth="yes"/>
    </contour>
    <contour>
      <point x="222" y="1346" type="line"/>
      <point x="222" y="752" type="line"/>
      <point x="64" y="744" type="line"/>
      <point x="64" y="666" type="line"/>
      <point x="222" y="666" type="line"/>
      <point x="222" y="0" type="line"/>
      <point x="554" y="0" type="line"/>
      <point x="963" y="0"/>
      <point x="1175" y="258"/>
      <point x="1175" y="679" type="curve" smooth="yes"/>
      <point x="1175" y="1097"/>
      <point x="963" y="1346"/>
      <point x="548" y="1346" type="curve" smooth="yes"/>
    </contour>
    <contour>
      <point x="619" y="1050" type="move" name="top"/>
    </contour>
  </outline>
</glyph>
<glyph name="germandbls" format="1">
  <advance width="1151"/>
  <unicode hex="00DF"/>
  <outline>
    <contour>
      <point x="176" y="0" type="line" name="hr01"/>
      <point x="313" y="0" type="line"/>
      <point x="313" y="1038" type="line"/>
      <point x="313" y="1263"/>
      <point x="405" y="1371"/>
      <point x="555" y="1371" type="curve" smooth="yes"/>
      <point x="674" y="1371"/>
      <point x="735" y="1292"/>
      <point x="735" y="1182" type="curve" smooth="yes"/>
      <point x="735" y="1005"/>
      <point x="546" y="944"/>
      <point x="546" y="753" type="curve" smooth="yes"/>
      <point x="546" y="464"/>
      <point x="960" y="522"/>
      <point x="960" y="264" type="curve" smooth="yes"/>
      <point x="960" y="171"/>
      <point x="896" y="84"/>
      <point x="773" y="84" type="curve" smooth="yes" name="hr02"/>
      <point x="692" y="84"/>
      <point x="624" y="114"/>
      <point x="549" y="175" type="curve"/>
      <point x="491" y="78" type="line"/>
      <point x="573" y="15"/>
      <point x="666" y="-25"/>
      <point x="776" y="-25" type="curve" smooth="yes"/>
      <point x="967" y="-25"/>
      <point x="1092" y="104"/>
      <point x="1092" y="272" type="curve" smooth="yes"/>
      <point x="1092" y="609"/>
      <point x="678" y="555"/>
      <point x="678" y="768" type="curve" smooth="yes"/>
      <point x="678" y="919"/>
      <point x="870" y="989"/>
      <point x="870" y="1196" type="curve" smooth="yes"/>
      <point x="870" y="1354"/>
      <point x="757" y="1485"/>
      <point x="557" y="1485" type="curve" smooth="yes"/>
      <point x="318" y="1485"/>
      <point x="176" y="1323"/>
      <point x="176" y="1069" type="curve" smooth="yes"/>
    </contour>
    <contour>
      <point x="634" y="1050" type="move" name="top"/>
    </contour>
  </outline>
</glyph>
<glyph name="eth" format="1">
  <advance width="1108"/>
  <unicode hex="00F0"/>
  <outline>
    <contour>
      <point x="552" y="90" type="curve" smooth="yes"/>
      <point x="385" y="90"/>
      <point x="245" y="236"/>
      <point x="245" y="453" type="curve" smooth="yes"/>
      <point x="245" y="646"/>
      <point x="355" y="802"/>
      <point x="553" y="802" type="curve" smooth="yes"/>
      <point x="649" y="802"/>
      <point x="746" y="771"/>
      <point x="842" y="636" type="curve"/>
      <point x="845" y="599"/>
      <point x="847" y="559"/>
      <point x="847" y="518" type="curve" smooth="yes"/>
      <point x="847" y="272"/>
      <point x="752" y="90"/>
    </contour>
    <contour>
      <point x="970" y="1378" type="line"/>
      <point x="929" y="1451" type="line"/>
      <point x="638" y="1300" type="line"/>
      <point x="551" y="1375"/>
      <point x="455" y="1437"/>
      <point x="355" y="1490" type="curve"/>
      <point x="291" y="1402" type="line"/>
      <point x="377" y="1354"/>
      <point x="457" y="1303"/>
      <point x="530" y="1244" type="curve"/>
      <point x="266" y="1109" type="line"/>
      <point x="307" y="1036" type="line"/>
      <point x="597" y="1186" type="line"/>
      <point x="705" y="1080"/>
      <point x="786" y="949"/>
      <point x="823" y="768" type="curve"/>
      <point x="749" y="865"/>
      <point x="647" y="911"/>
      <point x="537" y="911" type="curve" smooth="yes"/>
      <point x="294" y="911"/>
      <point x="115" y="727"/>
      <point x="115" y="453" type="curve" smooth="yes"/>
      <point x="115" y="156"/>
      <point x="323" y="-25"/>
      <point x="549" y="-25" type="curve" smooth="yes"/>
      <point x="807" y="-25"/>
      <point x="981" y="194"/>
      <point x="981" y="522" type="curve" smooth="yes"/>
      <point x="981" y="850"/>
      <point x="866" y="1075"/>
      <point x="703" y="1241" type="curve"/>
    </contour>
    <contour>
      <point x="548" y="1050" type="move" name="top"/>
    </contour>
  </outline>
</glyph>
<glyph name="gdotaccent" format="1">
  <advance width="1018"/>
  <unicode hex="0121"/>
  <outline>
    <contour>
      <point x="509" y="1209" type="curve" smooth="yes" name="hr00"/>
      <point x="565" y="1209"/>
      <point x="606" y="1248"/>
      <point x="606" y="1309" type="curve" smooth="yes"/>
      <point x="606" y="1365"/>
      <point x="565" y="1406"/>
      <point x="509" y="1406" type="curve" smooth="yes"/>
      <point x="453" y="1406"/>
      <point x="412" y="1365"/>
      <point x="412" y="1309" type="curve" smooth="yes"/>
      <point x="412" y="1248"/>
      <point x="453" y="1209"/>
    </contour>
    <component base="g"/>
  </outline>
</glyph>
<glyph name="uni015F" format="1">
  <advance width="846"/>
  <unicode hex="015F"/>
  <outline>
    <contour>
      <point x="739" y="906" type="line"/>
      <point x="664" y="967"/>
      <point x="557" y="1015"/>
      <point x="441" y="1015" type="curve" smooth="yes"/>
      <point x="230" y="1015"/>
      <point x="109" y="894"/>
      <point x="109" y="740" type="curve" smooth="yes"/>
      <point x="109" y="573"/>
      <point x="268" y="509"/>
      <point x="412" y="457" type="curve" smooth="yes"/>
      <point x="523" y="416"/>
      <point x="645" y="367"/>
      <point x="645" y="256" type="curve" smooth="yes"/>
      <point x="645" y="162"/>
      <point x="574" y="84"/>
      <point x="433" y="84" type="curve" smooth="yes"/>
      <point x="305" y="84"/>
      <point x="217" y="137"/>
      <point x="132" y="206" type="curve"/>
      <point x="61" y="112" type="line"/>
      <point x="147" y="40"/>
      <point x="269" y="-17"/>
      <point x="403" y="-25" type="curve"/>
      <point x="336" y="-153" type="line"/>
      <point x="419" y="-173"/>
      <point x="470" y="-200"/>
      <point x="470" y="-256" type="curve" smooth="yes"/>
      <point x="470" y="-312"/>
      <point x="393" y="-342"/>
      <point x="285" y="-357" type="curve"/>
      <point x="300" y="-432" type="line"/>
      <point x="444" y="-417"/>
      <point x="579" y="-363"/>
      <point x="579" y="-250" type="curve" smooth="yes"/>
      <point x="579" y="-166"/>
      <point x="524" y="-128"/>
      <point x="457" y="-106" type="curve"/>
      <point x="500" y="-20" type="line"/>
      <point x="680" y="5"/>
      <point x="779" y="125"/>
      <point x="779" y="264" type="curve" smooth="yes"/>
      <point x="779" y="454"/>
      <point x="615" y="510"/>
      <point x="467" y="565" type="curve" smooth="yes"/>
      <point x="353" y="608"/>
      <point x="242" y="649"/>
      <point x="242" y="748" type="curve" smooth="yes"/>
      <point x="242" y="830"/>
      <point x="305" y="906"/>
      <point x="441" y="906" type="curve" smooth="yes"/>
      <point x="534" y="906"/>
      <point x="604" y="868"/>
      <point x="671" y="818" type="curve"/>
    </contour>
  </outline>
</glyph>
<glyph name="Ohorn" format="1">
  <advance width="1338"/>
  <unicode hex="01A0"/>
  <outline>
    <contour>
      <point x="670" y="99" type="curve" smooth="yes" name="hr01"/>
      <point x="415" y="99"/>
      <point x="246" y="327"/>
      <point x="246" y="679" type="curve" smooth="yes"/>
      <point x="246" y="1029"/>
      <point x="415" y="1247"/>
      <point x="670" y="1247" type="curve" smooth="yes"/>
      <point x="923" y="1247"/>
      <point x="1091" y="1029"/>
      <point x="1091" y="679" type="curve" smooth="yes"/>
      <point x="1091" y="327"/>
      <point x="923" y="99"/>
    </contour>
    <contour>
      <point x="1080" y="1526" type="line" name="hr02"/>
      <point x="1098" y="1499"/>
      <point x="1109" y="1473"/>
      <point x="1109" y="1444" type="curve" smooth="yes"/>
      <point x="1109" y="1367"/>
      <point x="1053" y="1325"/>
      <point x="931" y="1305" type="curve"/>
      <point x="855" y="1348"/>
      <point x="767" y="1370"/>
      <point x="670" y="1370" type="curve" smooth="yes"/>
      <point x="337" y="1370"/>
      <point x="102" y="1107"/>
      <point x="102" y="679" type="curve" smooth="yes"/>
      <point x="102" y="248"/>
      <point x="337" y="-25"/>
      <point x="670" y="-25" type="curve" smooth="yes"/>
      <point x="1001" y="-25"/>
      <point x="1236" y="248"/>
      <point x="1236" y="679" type="curve" smooth="yes" name="hr03"/>
      <point x="1236" y="931"/>
      <point x="1153" y="1126"/>
      <point x="1019" y="1244" type="curve"/>
      <point x="1145" y="1274"/>
      <point x="1224" y="1339"/>
      <point x="1224" y="1452" type="curve" smooth="yes" name="hr04"/>
      <point x="1224" y="1499"/>
      <point x="1207" y="1540"/>
      <point x="1181" y="1577" type="curve"/>
    </contour>
  </outline>
</glyph>
<glyph name="uni0243" format="1">
  <advance width="1222"/>
  <unicode hex="0243"/>
  <outline>
    <contour>
      <point x="362" y="107" type="line"/>
      <point x="362" y="363" type="line"/>
      <point x="684" y="363" type="line"/>
      <point x="684" y="448" type="line"/>
      <point x="362" y="448" type="line"/>
      <point x="362" y="674" type="line"/>
      <point x="612" y="674" type="line"/>
      <point x="862" y="674"/>
      <point x="1006" y="588"/>
      <point x="1006" y="404" type="curve" smooth="yes"/>
      <point x="1006" y="201"/>
      <point x="857" y="107"/>
      <point x="612" y="107" type="curve" smooth="yes"/>
    </contour>
    <contour>
      <point x="362" y="1240" type="line"/>
      <point x="583" y="1240" type="line"/>
      <point x="808" y="1240"/>
      <point x="927" y="1173"/>
      <point x="927" y="1015" type="curve" smooth="yes"/>
      <point x="927" y="854"/>
      <point x="823" y="770"/>
      <point x="575" y="770" type="curve" smooth="yes"/>
      <point x="362" y="770" type="line"/>
    </contour>
    <contour>
      <point x="826" y="735" type="line"/>
      <point x="984" y="776"/>
      <point x="1061" y="887"/>
      <point x="1061" y="1021" type="curve" smooth="yes"/>
      <point x="1061" y="1248"/>
      <point x="879" y="1346"/>
      <point x="607" y="1346" type="curve" smooth="yes"/>
      <point x="222" y="1346" type="line"/>
      <point x="222" y="448" type="line"/>
      <point x="64" y="441" type="line"/>
      <point x="64" y="363" type="line"/>
      <point x="222" y="363" type="line"/>
      <point x="222" y="0" type="line"/>
      <point x="636" y="0" type="line"/>
      <point x="938" y="0"/>
      <point x="1142" y="132"/>
      <point x="1142" y="399" type="curve" smooth="yes"/>
      <point x="1142" y="588"/>
      <point x="1023" y="696"/>
      <point x="826" y="727" type="curve"/>
    </contour>
  </outline>
</glyph>
<glyph name="uni02BC" format="1">
  <advance width="485"/>
  <unicode hex="02BC"/>
  <outline>
    <contour>
      <point x="168" y="922" type="line"/>
      <point x="296" y="999"/>
      <point x="369" y="1110"/>
      <point x="369" y="1266" type="curve" smooth="yes"/>
      <point x="369" y="1372"/>
      <point x="325" y="1433"/>
      <point x="255" y="1433" type="curve" smooth="yes"/>
      <point x="199" y="1433"/>
      <point x="159" y="1395"/>
      <point x="159" y="1331" type="curve" smooth="yes"/>
      <point x="159" y="1271"/>
      <point x="206" y="1239"/>
      <point x="255" y="1239" type="curve" smooth="yes"/>
      <point x="261" y="1239"/>
      <point x="266" y="1239"/>
      <point x="272" y="1242" type="curve"/>
      <point x="272" y="1124"/>
      <point x="222" y="1057"/>
      <point x="125" y="987" type="curve"/>
    </contour>
  </outline>
</glyph>
<glyph name="uni02C8" format="1">
  <advance width="217"/>
  <unicode hex="02C8"/>
  <outline>
    <contour>
      <point x="61" y="1088" type="line"/>
      <point x="157" y="1088" type="line"/>
      <point x="169" y="1454" type="line"/>
      <point x="48" y="1454" type="line"/>
    </contour>
  </outline>
</glyph>
<glyph name="tilde" format="1">
  <advance width="1104"/>
  <unicode hex="02DC"/>
  <outline>
    <contour>
      <point x="280" y="1188" type="curve"/>
      <point x="362" y="1188" type="line"/>
      <point x="372" y="1258"/>
      <point x="395" y="1295"/>
      <point x="437" y="1295" type="curve" smooth="yes"/>
      <point x="509" y="1295"/>
      <point x="567" y="1188"/>
      <point x="668" y="1188" type="curve" smooth="yes"/>
      <point x="767" y="1188"/>
      <point x="815" y="1282"/>
      <point x="824" y="1390" type="curve"/>
      <point x="743" y="1390" type="line"/>
      <point x="732" y="1321"/>
      <point x="709" y="1282"/>
      <point x="667" y="1282" type="curve" smooth="yes"/>
      <point x="599" y="1282"/>
      <point x="539" y="1390"/>
      <point x="435" y="1390" type="curve" smooth="yes"/>
      <point x="337" y="1390"/>
      <point x="289" y="1296"/>
    </contour>
    <contour>
      <point x="552" y="1050" type="move" name="_top"/>
    </contour>
  </outline>
</glyph>
<glyph name="uni0304" format="1">
  <advance width="600"/>
  <unicode hex="0304"/>
  <outline>
    <contour>
      <point x="-243" y="1235" type="line"/>
      <point x="243" y="1235" type="line"/>
      <point x="243" y="1334" type="line"/>
      <point x="-243" y="1334" type="line"/>
    </contour>
    <contour>
      <point x="0" y="1035" type="move" name="_mark0"/>
    </contour>
  </outline>
</glyph>
<glyph name="uni0306" format="1">
  <advance width="600"/>
  <unicode hex="0306"/>
  <outline>
    <contour>
      <point x="0" y="1179" type="curve" smooth="yes"/>
      <point x="173" y="1179"/>
      <point x="242" y="1318"/>
      <point x="252" y="1432" type="curve"/>
      <point x="163" y="1432" type="line"/>
      <point x="152" y="1349"/>
      <point x="101" y="1267"/>
      <point x="0" y="1267" type="curve" smooth="yes"/>
      <point x="-101" y="1267"/>
      <point x="-152" y="1349"/>
      <point x="-163" y="1432" type="curve"/>
      <point x="-252" y="1432" type="line"/>
      <point x="-242" y="1318"/>
      <point x="-173" y="1179"/>
    </contour>
    <contour>
      <point x="0" y="1035" type="move" name="_mark0"/>
    </contour>
  </outline>
</glyph>
<glyph name="uni0309" format="1">
  <advance width="883"/>
  <unicode hex="0309"/>
  <outline>
    <contour>
      <point x="369" y="1131" type="line"/>
      <point x="479" y="1154"/>
      <point x="583" y="1202"/>
      <point x="583" y="1316" type="curve" smooth="yes"/>
      <point x="583" y="1420"/>
      <point x="475" y="1470"/>
      <point x="315" y="1476" type="curve"/>
      <point x="300" y="1392" type="line"/>
      <point x="413" y="1387"/>
      <point x="472" y="1357"/>
      <point x="472" y="1300" type="curve" smooth="yes"/>
      <point x="472" y="1246"/>
      <point x="420" y="1219"/>
      <point x="351" y="1199" type="curve"/>
    </contour>
  </outline>
</glyph>
<glyph name="uni0312" format="1">
  <advance width="0"/>
  <unicode hex="0312"/>
  <outline>
    <contour>
      <point x="56" y="1486" type="line"/>
      <point x="-55" y="1433"/>
      <point x="-100" y="1344"/>
      <point x="-100" y="1251" type="curve" smooth="yes"/>
      <point x="-100" y="1163"/>
      <point x="-66" y="1117"/>
      <point x="-4" y="1117" type="curve" smooth="yes"/>
      <point x="38" y="1117"/>
      <point x="72" y="1145"/>
      <point x="72" y="1202" type="curve" smooth="yes"/>
      <point x="72" y="1253"/>
      <point x="31" y="1277"/>
      <point x="-7" y="1277" type="curve" smooth="yes"/>
      <point x="-13" y="1277"/>
      <point x="-17" y="1277"/>
      <point x="-24" y="1274" type="curve"/>
      <point x="-20" y="1337"/>
      <point x="13" y="1388"/>
      <point x="91" y="1428" type="curve"/>
    </contour>
  </outline>
</glyph>
<glyph name="uni0313" format="1">
  <advance width="0"/>
  <unicode hex="0313"/>
  <outline>
    <contour>
      <point x="-59" y="1115" type="line"/>
      <point x="52" y="1168"/>
      <point x="97" y="1257"/>
      <point x="97" y="1349" type="curve" smooth="yes"/>
      <point x="97" y="1437"/>
      <point x="63" y="1484"/>
      <point x="3" y="1484" type="curve" smooth="yes"/>
      <point x="-39" y="1484"/>
      <point x="-74" y="1457"/>
      <point x="-74" y="1400" type="curve" smooth="yes"/>
      <point x="-74" y="1350"/>
      <point x="-33" y="1326"/>
      <point x="4" y="1326" type="curve" smooth="yes"/>
      <point x="10" y="1326"/>
      <point x="16" y="1326"/>
      <point x="21" y="1328" type="curve"/>
      <point x="18" y="1266"/>
      <point x="-16" y="1213"/>
      <point x="-92" y="1175" type="curve"/>
    </contour>
  </outline>
</glyph>
<glyph name="uni031B" format="1">
  <advance width="0"/>
  <unicode hex="031B"/>
  <outline>
    <contour>
      <point x="-3" y="895" type="line"/>
      <point x="159" y="913"/>
      <point x="279" y="977"/>
      <point x="279" y="1117" type="curve" smooth="yes"/>
      <point x="279" y="1165"/>
      <point x="261" y="1206"/>
      <point x="235" y="1243" type="curve"/>
      <point x="134" y="1191" type="line"/>
      <point x="151" y="1164"/>
      <point x="163" y="1136"/>
      <point x="163" y="1108" type="curve" smooth="yes"/>
      <point x="163" y="1026"/>
      <point x="104" y="986"/>
      <point x="-17" y="970" type="curve"/>
    </contour>
  </outline>
</glyph>
<glyph name="uni0324" format="1">
  <advance width="0"/>
  <unicode hex="0324"/>
  <outline>
    <contour>
      <point x="-170" y="-403" type="curve" smooth="yes"/>
      <point x="-119" y="-403"/>
      <point x="-80" y="-363"/>
      <point x="-80" y="-313" type="curve" smooth="yes"/>
      <point x="-80" y="-262"/>
      <point x="-119" y="-224"/>
      <point x="-170" y="-224" type="curve" smooth="yes"/>
      <point x="-223" y="-224"/>
      <point x="-260" y="-262"/>
      <point x="-260" y="-313" type="curve" smooth="yes"/>
      <point x="-260" y="-363"/>
      <point x="-223" y="-403"/>
    </contour>
    <contour>
      <point x="170" y="-403" type="curve" smooth="yes"/>
      <point x="223" y="-403"/>
      <point x="260" y="-363"/>
      <point x="260" y="-313" type="curve" smooth="yes"/>
      <point x="260" y="-262"/>
      <point x="223" y="-224"/>
      <point x="170" y="-224" type="curve" smooth="yes"/>
      <point x="119" y="-224"/>
      <point x="80" y="-262"/>
      <point x="80" y="-313" type="curve" smooth="yes"/>
      <point x="80" y="-363"/>
      <point x="119" y="-403"/>
    </contour>
  </outline>
</glyph>
<glyph name="rVocalic-deva" format="1">
  <advance width="1450"/>
  <unicode hex="090B"/>
  <outline>
    <contour>
      <point x="738" y="526" type="line"/>
      <point x="752" y="588" type="line"/>
      <point x="555" y="855"/>
      <point x="450" y="918"/>
      <point x="320" y="924" type="curve" smooth="yes"/>
      <point x="220" y="928"/>
      <point x="146" y="892"/>
      <point x="82" y="853" type="curve"/>
      <point x="130" y="750" type="line"/>
      <point x="205" y="791"/>
      <point x="271" y="812"/>
      <point x="334" y="809" type="curve" smooth="yes"/>
      <point x="448" y="804"/>
      <point x="534" y="711"/>
      <point x="671" y="547" type="curve"/>
      <point x="679" y="606" type="line"/>
      <point x="167" y="252" type="line"/>
      <point x="238" y="155" type="line"/>
    </contour>
    <contour>
      <point x="800" y="-1" type="line"/>
      <point x="800" y="1186" type="line"/>
      <point x="674" y="1186" type="line"/>
      <point x="674" y="-1" type="line"/>
    </contour>
    <contour>
      <point x="1268" y="138"/>
      <point x="1326" y="237"/>
      <point x="1326" y="355" type="curve" smooth="yes"/>
      <point x="1326" y="492"/>
      <point x="1245" y="628"/>
      <point x="1064" y="816" type="curve"/>
      <point x="1018" y="761" type="line"/>
      <point x="1138" y="595"/>
      <point x="1206" y="483"/>
      <point x="1206" y="378" type="curve" smooth="yes"/>
      <point x="1206" y="286"/>
      <point x="1162" y="214"/>
      <point x="1047" y="156" type="curve"/>
      <point x="1109" y="64" type="line"/>
    </contour>
    <contour>
      <point x="934" y="565"/>
      <point x="1029" y="621"/>
      <point x="1124" y="693" type="curve" smooth="yes"/>
      <point x="1175" y="739"/>
      <point x="1192" y="788"/>
      <point x="1192" y="821" type="curve" smooth="yes"/>
      <point x="1192" y="894"/>
      <point x="1119" y="933"/>
      <point x="1009" y="960" type="curve"/>
      <point x="930" y="893" type="line"/>
      <point x="1048" y="716" type="line"/>
      <point x="1051" y="784" type="line"/>
      <point x="972" y="698"/>
      <point x="858" y="663"/>
      <point x="734" y="671" type="curve"/>
      <point x="779" y="562" type="line"/>
    </contour>
    <contour>
      <point x="1460" y="1143" type="line"/>
      <point x="1460" y="1247" type="line"/>
      <point x="-12" y="1247" type="line"/>
      <point x="-12" y="1143" type="line"/>
    </contour>
    <contour>
      <point x="737" y="1168" type="move" name="top"/>
    </contour>
    <contour>
      <point x="737" y="28" type="move" name="bottom"/>
    </contour>
    <contour>
      <point x="741" y="1168" type="move" name="topcandra"/>
    </contour>
  </outline>
</glyph>
<glyph name="dda-deva" format="1">
  <advance width="986"/>
  <unicode hex="0921"/>
  <outline>
    <contour>
      <point x="345" y="921" type="line" smooth="yes"/>
      <point x="186" y="919"/>
      <point x="100" y="850"/>
      <point x="100" y="720" type="curve" smooth="yes"/>
      <point x="100" y="615"/>
      <point x="148" y="490"/>
      <point x="205" y="436" type="curve" smooth="yes"/>
      <point x="224" y="419"/>
      <point x="249" y="401"/>
      <point x="287" y="407" type="curve" smooth="yes"/>
      <point x="342" y="415"/>
      <point x="523" y="437"/>
      <point x="617" y="437" type="curve" smooth="yes"/>
      <point x="754" y="437"/>
      <point x="802" y="382"/>
      <point x="799" y="282" type="curve" smooth="yes"/>
      <point x="794" y="168"/>
      <point x="706" y="91"/>
      <point x="504" y="91" type="curve" smooth="yes"/>
      <point x="319" y="91"/>
      <point x="196" y="176"/>
      <point x="89" y="271" type="curve"/>
      <point x="30" y="199" type="line"/>
      <point x="154" y="62"/>
      <point x="316" y="-20"/>
      <point x="515" y="-20" type="curve" smooth="yes"/>
      <point x="734" y="-20"/>
      <point x="918" y="80"/>
      <point x="918" y="301" type="curve" smooth="yes"/>
      <point x="918" y="510"/>
      <point x="775" y="553"/>
      <point x="626" y="552" type="curve" smooth="yes"/>
      <point x="508" y="552"/>
      <point x="313" y="531"/>
      <point x="250" y="514" type="curve"/>
      <point x="281" y="498" type="line"/>
      <point x="237" y="548"/>
      <point x="217" y="627"/>
      <point x="217" y="686" type="curve" smooth="yes"/>
      <point x="217" y="762"/>
      <point x="245" y="809"/>
      <point x="378" y="809" type="curve" smooth="yes"/>
      <point x="746" y="809" type="line"/>
      <point x="732" y="921" type="line"/>
    </contour>
    <contour>
      <point x="-12" y="1247" type="line"/>
      <point x="-12" y="1143" type="line"/>
      <point x="999" y="1143" type="line"/>
      <point x="999" y="1247" type="line"/>
    </contour>
    <contour>
      <point x="668" y="1186" type="line"/>
      <point x="668" y="809" type="line"/>
      <point x="793" y="809" type="line"/>
      <point x="793" y="1186" type="line"/>
    </contour>
    <contour>
      <point x="509" y="-153" type="move" name="nukta"/>
    </contour>
    <contour>
      <point x="728" y="1168" type="move" name="top"/>
    </contour>
    <contour>
      <point x="544" y="1168" type="move" name="topcandra"/>
    </contour>
    <contour>
      <point x="520" y="-78" type="move" name="bottom"/>
    </contour>
  </outline>
</glyph>
<glyph name="va-deva" format="1">
  <advance width="1088"/>
  <unicode hex="0935"/>
  <outline>
    <contour>
      <point x="748" y="1196" type="line"/>
      <point x="748" y="0" type="line"/>
      <point x="874" y="0" type="line"/>
      <point x="874" y="1196" type="line"/>
    </contour>
    <contour>
      <point x="-12" y="1247" type="line"/>
      <point x="-12" y="1143" type="line"/>
      <point x="1101" y="1143" type="line"/>
      <point x="1101" y="1247" type="line"/>
    </contour>
    <contour>
      <point x="203" y="926"/>
      <point x="78" y="807"/>
      <point x="78" y="576" type="curve" smooth="yes"/>
      <point x="78" y="329"/>
      <point x="223" y="219"/>
      <point x="425" y="219" type="curve" smooth="yes"/>
      <point x="571" y="219"/>
      <point x="701" y="276"/>
      <point x="796" y="383" type="curve"/>
      <point x="778" y="493" type="line"/>
      <point x="682" y="391"/>
      <point x="577" y="329"/>
      <point x="427" y="329" type="curve" smooth="yes"/>
      <point x="292" y="329"/>
      <point x="208" y="385"/>
      <point x="208" y="566" type="curve" smooth="yes"/>
      <point x="208" y="746"/>
      <point x="293" y="814"/>
      <point x="466" y="815" type="curve" smooth="yes"/>
      <point x="557" y="816"/>
      <point x="669" y="796"/>
      <point x="791" y="741" type="curve"/>
      <point x="791" y="838" type="line"/>
      <point x="672" y="896"/>
      <point x="555" y="926"/>
      <point x="448" y="926" type="curve" smooth="yes"/>
    </contour>
    <contour>
      <point x="248" y="44" type="move" name="nukta"/>
    </contour>
    <contour>
      <point x="811" y="1168" type="move" name="top"/>
    </contour>
    <contour>
      <point x="515" y="1168" type="move" name="topcandra"/>
    </contour>
    <contour>
      <point x="811" y="28" type="move" name="bottom"/>
    </contour>
  </outline>
</glyph>
<glyph name="iMatra-deva" format="1">
  <advance width="553"/>
  <unicode hex="093F"/>
  <outline>
    <contour>
      <point x="244" y="1765"/>
      <point x="106" y="1679"/>
      <point x="106" y="1492" type="curve" smooth="yes"/>
      <point x="106" y="1396"/>
      <point x="143" y="1302"/>
      <point x="258" y="1194" type="curve"/>
      <point x="366" y="1196" type="line"/>
      <point x="259" y="1328"/>
      <point x="233" y="1398"/>
      <point x="233" y="1467" type="curve" smooth="yes"/>
      <point x="233" y="1588"/>
      <point x="309" y="1652"/>
      <point x="501" y="1652" type="curve" smooth="yes"/>
      <point x="792" y="1652"/>
      <point x="1097" y="1545"/>
      <point x="1409" y="1334" type="curve"/>
      <point x="1459" y="1408" type="line"/>
      <point x="1146" y="1640"/>
      <point x="797" y="1765"/>
      <point x="487" y="1765" type="curve" smooth="yes"/>
    </contour>
    <contour>
      <point x="214" y="1189" type="line"/>
      <point x="214" y="0" type="line"/>
      <point x="340" y="0" type="line"/>
      <point x="340" y="1189" type="line"/>
    </contour>
    <contour>
      <point x="-12" y="1247" type="line"/>
      <point x="-12" y="1143" type="line"/>
      <point x="570" y="1143" type="line"/>
      <point x="570" y="1247" type="line"/>
    </contour>
    <contour>
      <point x="1433" y="1369" type="move" name="imatra"/>
    </contour>
    <contour>
      <point x="1276" y="1353" type="move" name="top"/>
    </contour>
    <contour>
      <point x="1515" y="1334" type="move" name="topcandra"/>
    </contour>
  </outline>
</glyph>
<glyph name="rVocalicMatra-deva" format="1">
  <advance width="540"/>
  <unicode hex="0943"/>
  <outline>
    <contour>
      <point x="110" y="51"/>
      <point x="0" y="-54"/>
      <point x="0" y="-187" type="curve"/>
      <point x="0" y="-338"/>
      <point x="135" y="-412"/>
      <point x="263" y="-412" type="curve" smooth="yes"/>
      <point x="373" y="-412"/>
      <point x="472" y="-369"/>
      <point x="545" y="-314" type="curve"/>
      <point x="496" y="-226" type="line"/>
      <point x="435" y="-270"/>
      <point x="351" y="-307"/>
      <point x="271" y="-309" type="curve" smooth="yes"/>
      <point x="181" y="-309"/>
      <point x="119" y="-267"/>
      <point x="119" y="-184" type="curve" smooth="yes"/>
      <point x="119" y="-89"/>
      <point x="194" y="-36"/>
      <point x="341" y="1" type="curve"/>
      <point x="297" y="88" type="line"/>
    </contour>
    <contour>
      <point x="277" y="28" type="move" name="_bottom"/>
    </contour>
  </outline>
</glyph>
<glyph name="abbreviation-deva" format="1">
  <advance width="966"/>
  <unicode hex="0970"/>
  <outline>
    <contour>
      <point x="352" y="361"/>
      <point x="280" y="417"/>
      <point x="281" y="565" type="curve" smooth="yes"/>
      <point x="281" y="729"/>
      <point x="368" y="780"/>
      <point x="486" y="780" type="curve" smooth="yes"/>
      <point x="611" y="780"/>
      <point x="685" y="722"/>
      <point x="685" y="575" type="curve" smooth="yes"/>
      <point x="685" y="413"/>
      <point x="597" y="361"/>
      <point x="479" y="361" type="curve"/>
    </contour>
    <contour>
      <point x="332" y="885"/>
      <point x="157" y="814"/>
      <point x="157" y="574" type="curve" smooth="yes"/>
      <point x="157" y="389"/>
      <point x="268" y="255"/>
      <point x="486" y="255" type="curve" smooth="yes"/>
      <point x="634" y="255"/>
      <point x="809" y="326"/>
      <point x="809" y="566" type="curve" smooth="yes"/>
      <point x="809" y="756"/>
      <point x="695" y="885"/>
      <point x="480" y="885" type="curve" smooth="yes"/>
    </contour>
  </outline>
</glyph>
<glyph name="gga-deva" format="1">
  <advance width="1137"/>
  <unicode hex="097B"/>
  <outline>
    <contour>
      <point x="90" y="50" type="line"/>
      <point x="90" y="-52" type="line"/>
      <point x="923" y="-52" type="line"/>
      <point x="923" y="50" type="line"/>
    </contour>
    <component base="ga-deva"/>
  </outline>
</glyph>
<glyph name="ddda-deva" format="1">
  <advance width="986"/>
  <unicode hex="097E"/>
  <outline>
    <contour>
      <point x="104" y="-161" type="line"/>
      <point x="104" y="-262" type="line"/>
      <point x="903" y="-262" type="line"/>
      <point x="903" y="-161" type="line"/>
    </contour>
    <component base="dda-deva"/>
  </outline>
</glyph>
<glyph name="u.sups" format="1">
  <advance width="752"/>
  <unicode hex="1D58"/>
  <outline>
    <contour>
      <point x="318" y="516" type="curve" smooth="yes"/>
      <point x="405" y="516"/>
      <point x="481" y="566"/>
      <point x="538" y="627" type="curve"/>
      <point x="546" y="627" type="line"/>
      <point x="558" y="532" type="line"/>
      <point x="642" y="532" type="line"/>
      <point x="642" y="1189" type="line"/>
      <point x="535" y="1189" type="line"/>
      <point x="535" y="712" type="line"/>
      <point x="465" y="640"/>
      <point x="406" y="608"/>
      <point x="348" y="608" type="curve" smooth="yes"/>
      <point x="239" y="608"/>
      <point x="215" y="677"/>
      <point x="215" y="787" type="curve" smooth="yes"/>
      <point x="215" y="1189" type="line"/>
      <point x="108" y="1189" type="line"/>
      <point x="108" y="771" type="line"/>
      <point x="108" y="620"/>
      <point x="163" y="516"/>
    </contour>
  </outline>
</glyph>
<glyph name="z.sups" format="1">
  <advance width="583"/>
  <unicode hex="1DBB"/>
  <outline>
    <contour>
      <point x="41" y="532" type="line"/>
      <point x="546" y="532" type="line"/>
      <point x="546" y="621" type="line"/>
      <point x="178" y="621" type="line"/>
      <point x="535" y="1127" type="line"/>
      <point x="535" y="1189" type="line"/>
      <point x="83" y="1189" type="line"/>
      <point x="83" y="1101" type="line"/>
      <point x="400" y="1101" type="line"/>
      <point x="41" y="591" type="line"/>
    </contour>
  </outline>
</glyph>
<glyph name="bullet" format="1">
  <advance width="603"/>
  <unicode hex="2022"/>
  <outline>
    <contour>
      <point x="301" y="302" type="curve" smooth="yes"/>
      <point x="417" y="302"/>
      <point x="522" y="395"/>
      <point x="522" y="540" type="curve" smooth="yes"/>
      <point x="522" y="683"/>
      <point x="417" y="778"/>
      <point x="301" y="778" type="curve" smooth="yes"/>
      <point x="186" y="778"/>
      <point x="82" y="683"/>
      <point x="82" y="540" type="curve" smooth="yes"/>
      <point x="82" y="395"/>
      <point x="186" y="302"/>
    </contour>
  </outline>
</glyph>
<glyph name="uni2033" format="1">
  <advance width="817"/>
  <unicode hex="2033"/>
  <outline>
    <contour>
      <point x="167" y="928" type="line"/>
      <point x="256" y="928" type="line"/>
      <point x="320" y="1233" type="line"/>
      <point x="348" y="1415" type="line"/>
      <point x="214" y="1415" type="line"/>
    </contour>
    <contour>
      <point x="498" y="928" type="line"/>
      <point x="587" y="928" type="line"/>
      <point x="652" y="1233" type="line"/>
      <point x="679" y="1415" type="line"/>
      <point x="546" y="1415" type="line"/>
    </contour>
  </outline>
</glyph>
<glyph name="four.sups" format="1">
  <advance width="747"/>
  <unicode hex="2074"/>
  <outline>
    <contour>
      <point x="211" y="1205" type="line"/>
      <point x="346" y="1414" type="line"/>
      <point x="453" y="1582" type="line"/>
      <point x="461" y="1582" type="line"/>
      <point x="453" y="1363" type="line"/>
      <point x="453" y="1205" type="line"/>
    </contour>
    <contour>
      <point x="672" y="1205" type="line"/>
      <point x="553" y="1205" type="line"/>
      <point x="553" y="1700" type="line"/>
      <point x="436" y="1700" type="line"/>
      <point x="89" y="1180" type="line"/>
      <point x="89" y="1123" type="line"/>
      <point x="453" y="1123" type="line"/>
      <point x="453" y="901" type="line"/>
      <point x="553" y="901" type="line"/>
      <point x="553" y="1123" type="line"/>
      <point x="672" y="1123" type="line"/>
    </contour>
  </outline>
</glyph>
<glyph name="nine.sups" format="1">
  <advance width="747"/>
  <unicode hex="2079"/>
  <outline>
    <contour>
      <point x="350" y="1283" type="curve" smooth="yes"/>
      <point x="243" y="1283"/>
      <point x="185" y="1358"/>
      <point x="185" y="1458" type="curve" smooth="yes"/>
      <point x="185" y="1560"/>
      <point x="250" y="1635"/>
      <point x="342" y="1635" type="curve" smooth="yes"/>
      <point x="453" y="1635"/>
      <point x="527" y="1546"/>
      <point x="539" y="1378" type="curve"/>
      <point x="472" y="1307"/>
      <point x="417" y="1283"/>
    </contour>
    <contour>
      <point x="117" y="933" type="line"/>
      <point x="164" y="902"/>
      <point x="217" y="877"/>
      <point x="304" y="877" type="curve" smooth="yes"/>
      <point x="490" y="877"/>
      <point x="645" y="1012"/>
      <point x="645" y="1325" type="curve" smooth="yes"/>
      <point x="645" y="1576"/>
      <point x="526" y="1724"/>
      <point x="342" y="1724" type="curve" smooth="yes"/>
      <point x="194" y="1724"/>
      <point x="82" y="1609"/>
      <point x="82" y="1456" type="curve" smooth="yes"/>
      <point x="82" y="1306"/>
      <point x="171" y="1200"/>
      <point x="332" y="1200" type="curve" smooth="yes"/>
      <point x="410" y="1200"/>
      <point x="480" y="1230"/>
      <point x="539" y="1287" type="curve"/>
      <point x="527" y="1063"/>
      <point x="420" y="966"/>
      <point x="302" y="966" type="curve" smooth="yes"/>
      <point x="246" y="966"/>
      <point x="203" y="988"/>
      <point x="164" y="1013" type="curve"/>
    </contour>
  </outline>
</glyph>
<glyph name="five.subs" format="1">
  <advance width="747"/>
  <unicode hex="2085"/>
  <outline>
    <contour>
      <point x="76" y="-272" type="line"/>
      <point x="137" y="-358"/>
      <point x="232" y="-427"/>
      <point x="373" y="-427" type="curve" smooth="yes"/>
      <point x="531" y="-427"/>
      <point x="653" y="-317"/>
      <point x="653" y="-151" type="curve" smooth="yes"/>
      <point x="653" y="24"/>
      <point x="536" y="119"/>
      <point x="392" y="119" type="curve" smooth="yes"/>
      <point x="338" y="119"/>
      <point x="294" y="104"/>
      <point x="254" y="84" type="curve"/>
      <point x="279" y="298" type="line"/>
      <point x="612" y="298" type="line"/>
      <point x="612" y="396" type="line"/>
      <point x="186" y="396" type="line"/>
      <point x="148" y="14" type="line"/>
      <point x="206" y="-27" type="line"/>
      <point x="249" y="8"/>
      <point x="297" y="41"/>
      <point x="364" y="41" type="curve" smooth="yes"/>
      <point x="470" y="41"/>
      <point x="543" y="-31"/>
      <point x="543" y="-148" type="curve" smooth="yes"/>
      <point x="543" y="-259"/>
      <point x="468" y="-338"/>
      <point x="369" y="-338" type="curve" smooth="yes"/>
      <point x="271" y="-338"/>
      <point x="204" y="-288"/>
      <point x="152" y="-215" type="curve"/>
    </contour>
  </outline>
</glyph>
<glyph name="six.subs" format="1">
  <advance width="747"/>
  <unicode hex="2086"/>
  <outline>
    <contour>
      <point x="398" y="-338" type="curve" smooth="yes"/>
      <point x="289" y="-338"/>
      <point x="214" y="-247"/>
      <point x="203" y="-80" type="curve"/>
      <point x="270" y="-10"/>
      <point x="326" y="15"/>
      <point x="390" y="15" type="curve" smooth="yes"/>
      <point x="499" y="15"/>
      <point x="556" y="-59"/>
      <point x="556" y="-160" type="curve" smooth="yes"/>
      <point x="556" y="-263"/>
      <point x="492" y="-338"/>
    </contour>
    <contour>
      <point x="624" y="363" type="line"/>
      <point x="579" y="397"/>
      <point x="525" y="421"/>
      <point x="438" y="421" type="curve" smooth="yes"/>
      <point x="251" y="421"/>
      <point x="96" y="284"/>
      <point x="96" y="-28" type="curve" smooth="yes"/>
      <point x="96" y="-280"/>
      <point x="216" y="-427"/>
      <point x="399" y="-427" type="curve" smooth="yes"/>
      <point x="548" y="-427"/>
      <point x="660" y="-310"/>
      <point x="660" y="-158" type="curve" smooth="yes"/>
      <point x="660" y="-10"/>
      <point x="572" y="98"/>
      <point x="410" y="98" type="curve" smooth="yes"/>
      <point x="332" y="98"/>
      <point x="263" y="68"/>
      <point x="202" y="12" type="curve"/>
      <point x="215" y="235"/>
      <point x="321" y="332"/>
      <point x="440" y="332" type="curve" smooth="yes"/>
      <point x="497" y="332"/>
      <point x="540" y="311"/>
      <point x="578" y="285" type="curve"/>
    </contour>
  </outline>
</glyph>
<glyph name="uni0259.sups" format="1">
  <advance width="683"/>
  <unicode hex="2094"/>
  <outline>
    <contour>
      <point x="326" y="516" type="curve" smooth="yes"/>
      <point x="492" y="516"/>
      <point x="620" y="648"/>
      <point x="620" y="860" type="curve" smooth="yes"/>
      <point x="620" y="1078"/>
      <point x="503" y="1205"/>
      <point x="317" y="1205" type="curve" smooth="yes"/>
      <point x="227" y="1205"/>
      <point x="160" y="1171"/>
      <point x="100" y="1132" type="curve"/>
      <point x="142" y="1062" type="line"/>
      <point x="191" y="1094"/>
      <point x="244" y="1117"/>
      <point x="312" y="1117" type="curve" smooth="yes"/>
      <point x="444" y="1117"/>
      <point x="512" y="1025"/>
      <point x="515" y="892" type="curve"/>
      <point x="60" y="892" type="line"/>
      <point x="54" y="861"/>
      <point x="53" y="850"/>
      <point x="53" y="824" type="curve" smooth="yes"/>
      <point x="53" y="694"/>
      <point x="116" y="516"/>
    </contour>
    <contour>
      <point x="324" y="603" type="curve" smooth="yes"/>
      <point x="198" y="603"/>
      <point x="149" y="700"/>
      <point x="149" y="817" type="curve"/>
      <point x="515" y="817" type="line"/>
      <point x="507" y="675"/>
      <point x="432" y="603"/>
    </contour>
  </outline>
</glyph>
<glyph name="uni20BA" format="1">
  <advance width="1003"/>
  <unicode hex="20BA"/>
  <outline>
    <contour>
      <point x="388" y="105" type="curve" name="hr00"/>
      <point x="388" y="623" type="line"/>
      <point x="734" y="806" type="line"/>
      <point x="734" y="899" type="line"/>
      <point x="388" y="718" type="line"/>
      <point x="388" y="873" type="line"/>
      <point x="734" y="1055" type="line"/>
      <point x="734" y="1149" type="line"/>
      <point x="388" y="968" type="line"/>
      <point x="388" y="1308" type="line"/>
      <point x="248" y="1308" type="line"/>
      <point x="248" y="900" type="line"/>
      <point x="51" y="797" type="line"/>
      <point x="51" y="703" type="line"/>
      <point x="248" y="805" type="line"/>
      <point x="248" y="649" type="line"/>
      <point x="51" y="547" type="line"/>
      <point x="51" y="453" type="line"/>
      <point x="248" y="555" type="line"/>
      <point x="248" y="-25" type="line"/>
      <point x="628" y="-32"/>
      <point x="935" y="126"/>
      <point x="935" y="465" type="curve" smooth="yes"/>
      <point x="935" y="504"/>
      <point x="931" y="536"/>
      <point x="921" y="586" type="curve"/>
      <point x="803" y="553" type="line"/>
      <point x="814" y="513"/>
      <point x="814" y="485"/>
      <point x="814" y="458" type="curve" smooth="yes"/>
      <point x="814" y="227"/>
      <point x="576" y="110"/>
    </contour>
  </outline>
</glyph>
<glyph name="uni2117" format="1">
  <advance width="1518"/>
  <unicode hex="2117"/>
  <outline>
    <contour>
      <point x="525" y="280" type="line"/>
      <point x="637" y="280" type="line"/>
      <point x="637" y="527" type="line"/>
      <point x="804" y="527" type="line"/>
      <point x="967" y="527"/>
      <point x="1096" y="614"/>
      <point x="1096" y="789" type="curve" smooth="yes"/>
      <point x="1096" y="948"/>
      <point x="969" y="1022"/>
      <point x="804" y="1022" type="curve" smooth="yes"/>
      <point x="525" y="1022" type="line"/>
    </contour>
    <contour>
      <point x="637" y="616" type="line"/>
      <point x="637" y="931" type="line"/>
      <point x="780" y="931" type="line"/>
      <point x="906" y="931"/>
      <point x="982" y="888"/>
      <point x="982" y="786" type="curve" smooth="yes"/>
      <point x="982" y="668"/>
      <point x="907" y="616"/>
      <point x="780" y="616" type="curve" smooth="yes"/>
    </contour>
    <contour>
      <point x="93" y="662" type="curve" smooth="yes"/>
      <point x="93" y="238"/>
      <point x="402" y="-36"/>
      <point x="764" y="-36" type="curve" smooth="yes"/>
      <point x="1125" y="-36"/>
      <point x="1434" y="238"/>
      <point x="1434" y="662" type="curve" smooth="yes"/>
      <point x="1434" y="1085"/>
      <point x="1125" y="1352"/>
      <point x="764" y="1352" type="curve" smooth="yes"/>
      <point x="402" y="1352"/>
      <point x="93" y="1085"/>
    </contour>
    <contour>
      <point x="181" y="662" type="curve" smooth="yes"/>
      <point x="181" y="1030"/>
      <point x="447" y="1275"/>
      <point x="764" y="1275" type="curve" smooth="yes"/>
      <point x="1080" y="1275"/>
      <point x="1346" y="1030"/>
      <point x="1346" y="662" type="curve" smooth="yes"/>
      <point x="1346" y="291"/>
      <point x="1080" y="43"/>
      <point x="764" y="43" type="curve" smooth="yes"/>
      <point x="447" y="43"/>
      <point x="181" y="291"/>
    </contour>
  </outline>
</glyph>
<glyph name="uni2126" format="1">
  <advance width="1384"/>
  <unicode hex="2126"/>
  <outline>
    <contour>
      <point x="89" y="0" type="line"/>
      <point x="556" y="0" type="line"/>
      <point x="556" y="96" type="line"/>
      <point x="394" y="214"/>
      <point x="260" y="410"/>
      <point x="260" y="714" type="curve" smooth="yes"/>
      <point x="260" y="1037"/>
      <point x="422" y="1253"/>
      <point x="692" y="1253" type="curve" smooth="yes"/>
      <point x="961" y="1253"/>
      <point x="1124" y="1037"/>
      <point x="1124" y="714" type="curve" smooth="yes"/>
      <point x="1124" y="410"/>
      <point x="990" y="214"/>
      <point x="827" y="96" type="curve"/>
      <point x="827" y="0" type="line"/>
      <point x="1295" y="0" type="line"/>
      <point x="1295" y="115" type="line"/>
      <point x="1014" y="115" type="line"/>
      <point x="1014" y="123" type="line"/>
      <point x="1138" y="243"/>
      <point x="1268" y="435"/>
      <point x="1268" y="718" type="curve" smooth="yes"/>
      <point x="1268" y="1119"/>
      <point x="1040" y="1376"/>
      <point x="692" y="1376" type="curve" smooth="yes"/>
      <point x="344" y="1376"/>
      <point x="116" y="1119"/>
      <point x="116" y="718" type="curve" smooth="yes"/>
      <point x="116" y="435"/>
      <point x="247" y="243"/>
      <point x="370" y="123" type="curve"/>
      <point x="370" y="115" type="line"/>
      <point x="89" y="115" type="line"/>
    </contour>
  </outline>
</glyph>
<glyph name="uni25C9" format="1">
  <advance width="890"/>
  <unicode hex="25C9"/>
  <outline>
    <contour>
      <point x="445" y="419" type="curve" smooth="yes"/>
      <point x="505" y="419"/>
      <point x="558" y="467"/>
      <point x="558" y="540" type="curve" smooth="yes"/>
      <point x="558" y="610"/>
      <point x="505" y="657"/>
      <point x="445" y="657" type="curve" smooth="yes"/>
      <point x="384" y="657"/>
      <point x="332" y="610"/>
      <point x="332" y="540" type="curve" smooth="yes"/>
      <point x="332" y="467"/>
      <point x="384" y="419"/>
    </contour>
    <contour>
      <point x="445" y="172" type="curve" smooth="yes"/>
      <point x="639" y="172"/>
      <point x="805" y="310"/>
      <point x="805" y="540" type="curve" smooth="yes"/>
      <point x="805" y="767"/>
      <point x="639" y="906"/>
      <point x="445" y="906" type="curve" smooth="yes"/>
      <point x="252" y="906"/>
      <point x="85" y="767"/>
      <point x="85" y="540" type="curve" smooth="yes"/>
      <point x="85" y="310"/>
      <point x="252" y="172"/>
    </contour>
    <contour>
      <point x="445" y="260" type="curve" smooth="yes"/>
      <point x="308" y="260"/>
      <point x="180" y="361"/>
      <point x="180" y="540" type="curve" smooth="yes"/>
      <point x="180" y="719"/>
      <point x="308" y="820"/>
      <point x="445" y="820" type="curve" smooth="yes"/>
      <point x="583" y="820"/>
      <point x="710" y="719"/>
      <point x="710" y="540" type="curve" smooth="yes"/>
      <point x="710" y="361"/>
      <point x="583" y="260"/>
    </contour>
  </outline>
</glyph>
<glyph name="lozenge" format="1">
  <advance width="1044"/>
  <unicode hex="25CA"/>
  <outline>
    <contour>
      <point x="456" y="-20" type="line" name="hr00"/>
      <point x="588" y="-20" type="line"/>
      <point x="926" y="676" type="line"/>
      <point x="588" y="1372" type="line"/>
      <point x="456" y="1372" type="line"/>
      <point x="117" y="676" type="line"/>
    </contour>
    <contour>
      <point x="518" y="95" type="line"/>
      <point x="385" y="372" type="line"/>
      <point x="243" y="676" type="line"/>
      <point x="385" y="977" type="line"/>
      <point x="518" y="1257" type="line"/>
      <point x="526" y="1257" type="line"/>
      <point x="658" y="977" type="line"/>
      <point x="801" y="676" type="line"/>
      <point x="658" y="372" type="line"/>
      <point x="526" y="95" type="line"/>
    </contour>
  </outline>
</glyph>
<glyph name="commaaccent" format="1">
  <advance width="507"/>
  <unicode hex="F6C3"/>
  <outline>
    <contour>
      <point x="282" y="-100" type="curve" name="hr00"/>
      <point x="250" y="-171" type="line"/>
      <point x="309" y="-184"/>
      <point x="358" y="-208"/>
      <point x="358" y="-265" type="curve" smooth="yes"/>
      <point x="358" y="-319"/>
      <point x="284" y="-348"/>
      <point x="173" y="-363" type="curve"/>
      <point x="190" y="-436" type="line"/>
      <point x="334" y="-423"/>
      <point x="469" y="-369"/>
      <point x="469" y="-255" type="curve" smooth="yes"/>
      <point x="469" y="-166"/>
      <point x="410" y="-122"/>
    </contour>
    <contour>
      <point x="321" y="1050" type="move" name="_top"/>
    </contour>
  </outline>
</glyph>
<glyph name="Iacute.a" format="1">
  <advance width="679"/>
  <outline>
    <contour>
      <point x="92" y="0" type="line"/>
      <point x="583" y="0" type="line"/>
      <point x="583" y="119" type="line"/>
      <point x="408" y="119" type="line"/>
      <point x="408" y="1228" type="line"/>
      <point x="583" y="1228" type="line"/>
      <point x="583" y="1346" type="line"/>
      <point x="92" y="1346" type="line"/>
      <point x="92" y="1228" type="line"/>
      <point x="268" y="1228" type="line"/>
      <point x="268" y="119" type="line"/>
      <point x="92" y="119" type="line"/>
    </contour>
    <contour>
      <point x="593" y="1673" type="line"/>
      <point x="430" y="1673" type="line"/>
      <point x="247" y="1448" type="line"/>
      <point x="364" y="1448" type="line"/>
    </contour>
  </outline>
</glyph>
<glyph name="amacron.a" format="1">
  <advance width="1128"/>
  <outline>
    <contour>
      <point x="243" y="494" type="curve" smooth="yes"/>
      <point x="243" y="730"/>
      <point x="379" y="899"/>
      <point x="554" y="899" type="curve" smooth="yes"/>
      <point x="641" y="899"/>
      <point x="722" y="868"/>
      <point x="814" y="785" type="curve"/>
      <point x="814" y="239" type="line"/>
      <point x="723" y="142"/>
      <point x="636" y="92"/>
      <point x="537" y="92" type="curve" smooth="yes"/>
      <point x="349" y="92"/>
      <point x="243" y="247"/>
    </contour>
    <contour>
      <point x="100" y="493" type="curve" smooth="yes"/>
      <point x="100" y="162"/>
      <point x="261" y="-25"/>
      <point x="510" y="-25" type="curve" smooth="yes"/>
      <point x="633" y="-25"/>
      <point x="740" y="43"/>
      <point x="819" y="121" type="curve"/>
      <point x="825" y="121" type="line"/>
      <point x="837" y="0" type="line"/>
      <point x="951" y="0" type="line"/>
      <point x="951" y="990" type="line"/>
      <point x="837" y="990" type="line"/>
      <point x="826" y="895" type="line"/>
      <point x="822" y="895" type="line"/>
      <point x="731" y="973"/>
      <point x="650" y="1015"/>
      <point x="536" y="1015" type="curve" smooth="yes"/>
      <point x="305" y="1015"/>
      <point x="100" y="814"/>
    </contour>
    <contour>
      <point x="327" y="1235" type="line"/>
      <point x="813" y="1235" type="line"/>
      <point x="813" y="1334" type="line"/>
      <point x="327" y="1334" type="line"/>
    </contour>
  </outline>
</glyph>
<glyph name="breve.cap" format="1">
  <advance width="0"/>
  <outline>
    <contour>
      <point x="0" y="1452" type="curve" smooth="yes" name="hr00"/>
      <point x="161" y="1452"/>
      <point x="232" y="1567"/>
      <point x="245" y="1673" type="curve"/>
      <point x="157" y="1673" type="line"/>
      <point x="145" y="1605"/>
      <point x="98" y="1536"/>
      <point x="0" y="1536" type="curve" smooth="yes"/>
      <point x="-98" y="1536"/>
      <point x="-145" y="1605"/>
      <point x="-157" y="1673" type="curve"/>
      <point x="-245" y="1673" type="line"/>
      <point x="-232" y="1567"/>
      <point x="-161" y="1452"/>
    </contour>
    <contour>
      <point x="0" y="1050" type="move" name="_top"/>
    </contour>
  </outline>
</glyph>
<glyph name="caronvertical" format="1">
  <advance width="333"/>
  <outline>
    <contour>
      <point x="209" y="1122" type="line" name="hr00"/>
      <point x="233" y="1441" type="line"/>
      <point x="234" y="1551" type="line"/>
      <point x="131" y="1551" type="line"/>
      <point x="138" y="1122" type="line"/>
    </contour>
  </outline>
</glyph>
<glyph name="comma.subs" format="1">
  <advance width="347"/>
  <outline>
    <contour>
      <point x="98" y="-632" type="line" name="hr00"/>
      <point x="208" y="-589"/>
      <point x="279" y="-492"/>
      <point x="279" y="-377" type="curve" smooth="yes"/>
      <point x="279" y="-288"/>
      <point x="240" y="-240"/>
      <point x="178" y="-240" type="curve" smooth="yes"/>
      <point x="133" y="-240"/>
      <point x="91" y="-273"/>
      <point x="91" y="-326" type="curve" smooth="yes"/>
      <point x="91" y="-379"/>
      <point x="133" y="-404"/>
      <point x="175" y="-404" type="curve" smooth="yes"/>
      <point x="181" y="-404"/>
      <point x="187" y="-404"/>
      <point x="193" y="-402" type="curve"/>
      <point x="192" y="-481"/>
      <point x="143" y="-535"/>
      <point x="69" y="-566" type="curve"/>
    </contour>
  </outline>
</glyph>
<glyph name="five.onum" format="1">
  <advance width="1003"/>
  <outline>
    <contour>
      <point x="60" y="1" type="line"/>
      <point x="148" y="-89"/>
      <point x="270" y="-174"/>
      <point x="479" y="-174" type="curve" smooth="yes"/>
      <point x="700" y="-174"/>
      <point x="905" y="-17"/>
      <point x="905" y="273" type="curve" smooth="yes"/>
      <point x="905" y="558"/>
      <point x="724" y="686"/>
      <point x="501" y="686" type="curve" smooth="yes"/>
      <point x="415" y="686"/>
      <point x="351" y="661"/>
      <point x="287" y="625" type="curve"/>
      <point x="325" y="1053" type="line"/>
      <point x="837" y="1053" type="line"/>
      <point x="837" y="1173" type="line"/>
      <point x="204" y="1173" type="line"/>
      <point x="160" y="544" type="line"/>
      <point x="239" y="494" type="line"/>
      <point x="317" y="546"/>
      <point x="376" y="577"/>
      <point x="470" y="577" type="curve" smooth="yes"/>
      <point x="649" y="577"/>
      <point x="766" y="461"/>
      <point x="766" y="266" type="curve" smooth="yes"/>
      <point x="766" y="65"/>
      <point x="634" y="-58"/>
      <point x="468" y="-58" type="curve" smooth="yes"/>
      <point x="304" y="-58"/>
      <point x="207" y="12"/>
      <point x="129" y="89" type="curve"/>
    </contour>
  </outline>
</glyph>
<glyph name="five.pnum" format="1">
  <advance width="1003"/>
  <outline>
    <contour>
      <point x="79" y="144" type="line"/>
      <point x="166" y="62"/>
      <point x="264" y="-25"/>
      <point x="473" y="-25" type="curve" smooth="yes"/>
      <point x="707" y="-25"/>
      <point x="905" y="146"/>
      <point x="905" y="427" type="curve" smooth="yes"/>
      <point x="905" y="711"/>
      <point x="730" y="859"/>
      <point x="501" y="859" type="curve" smooth="yes"/>
      <point x="415" y="859"/>
      <point x="351" y="835"/>
      <point x="287" y="799" type="curve"/>
      <point x="325" y="1231" type="line"/>
      <point x="837" y="1231" type="line"/>
      <point x="837" y="1350" type="line"/>
      <point x="204" y="1350" type="line"/>
      <point x="160" y="718" type="line"/>
      <point x="239" y="668" type="line"/>
      <point x="317" y="720"/>
      <point x="376" y="751"/>
      <point x="470" y="751" type="curve" smooth="yes"/>
      <point x="649" y="751"/>
      <point x="766" y="616"/>
      <point x="766" y="423" type="curve" smooth="yes"/>
      <point x="766" y="211"/>
      <point x="629" y="90"/>
      <point x="463" y="90" type="curve" smooth="yes"/>
      <point x="299" y="90"/>
      <point x="226" y="162"/>
      <point x="148" y="235" type="curve"/>
    </contour>
  </outline>
</glyph>
<glyph name="four.dnom" format="1">
  <advance width="747"/>
  <outline>
    <contour>
      <point x="211" y="304" type="line"/>
      <point x="346" y="513" type="line"/>
      <point x="453" y="681" type="line"/>
      <point x="461" y="681" type="line"/>
      <point x="453" y="462" type="line"/>
      <point x="453" y="304" type="line"/>
    </contour>
    <contour>
      <point x="672" y="304" type="line"/>
      <point x="553" y="304" type="line"/>
      <point x="553" y="799" type="line"/>
      <point x="436" y="799" type="line"/>
      <point x="89" y="279" type="line"/>
      <point x="89" y="221" type="line"/>
      <point x="453" y="221" type="line"/>
      <point x="453" y="0" type="line"/>
      <point x="553" y="0" type="line"/>
      <point x="553" y="221" type="line"/>
      <point x="672" y="221" type="line"/>
    </contour>
  </outline>
</glyph>
<glyph name="gh-deva" format="1">
  <advance width="691"/>
  <outline>
    <contour>
      <point x="209" y="802"/>
      <point x="129" y="651"/>
      <point x="129" y="509" type="curve" smooth="yes"/>
      <point x="129" y="331"/>
      <point x="245" y="215"/>
      <point x="453" y="215" type="curve" smooth="yes"/>
      <point x="626" y="215"/>
      <point x="795" y="305"/>
      <point x="889" y="439" type="curve"/>
      <point x="879" y="591" type="line"/>
      <point x="777" y="419"/>
      <point x="608" y="324"/>
      <point x="464" y="324" type="curve" smooth="yes"/>
      <point x="328" y="324"/>
      <point x="260" y="384"/>
      <point x="260" y="511" type="curve" smooth="yes"/>
      <point x="260" y="642"/>
      <point x="339" y="696"/>
      <point x="517" y="715" type="curve"/>
      <point x="510" y="817" type="line"/>
    </contour>
    <contour>
      <point x="249" y="1228"/>
      <point x="72" y="1157"/>
      <point x="72" y="973" type="curve" smooth="yes"/>
      <point x="72" y="879"/>
      <point x="122" y="771"/>
      <point x="323" y="683" type="curve"/>
      <point x="384" y="742" type="line"/>
      <point x="274" y="796"/>
      <point x="200" y="863"/>
      <point x="200" y="975" type="curve" smooth="yes"/>
      <point x="200" y="1081"/>
      <point x="290" y="1141"/>
      <point x="435" y="1155" type="curve"/>
      <point x="449" y="1225" type="line"/>
    </contour>
    <contour>
      <point x="-10" y="1247" type="line"/>
      <point x="-10" y="1143" type="line"/>
      <point x="710" y="1143" type="line"/>
      <point x="710" y="1247" type="line"/>
    </contour>
  </outline>
</glyph>
<glyph name="h_ma-deva" format="1">
  <advance width="1507"/>
  <outline>
    <contour>
      <point x="1167" y="1191" type="line"/>
      <point x="1167" y="-155" type="line"/>
      <point x="1293" y="-155" type="line"/>
      <point x="1293" y="1191" type="line"/>
    </contour>
    <contour>
      <point x="754" y="230" type="line"/>
      <point x="550" y="200" type="line"/>
      <point x="550" y="114" type="line"/>
      <point x="660" y="-19" type="line"/>
      <point x="760" y="-5"/>
      <point x="829" y="99"/>
      <point x="850" y="161" type="curve"/>
      <point x="850" y="233" type="line"/>
    </contour>
    <contour>
      <point x="784" y="232" type="line"/>
      <point x="784" y="121" type="line"/>
      <point x="1208" y="121" type="line"/>
      <point x="1208" y="233" type="line"/>
    </contour>
    <contour>
      <point x="827" y="1247" type="line"/>
      <point x="827" y="1143" type="line"/>
      <point x="1520" y="1143" type="line"/>
      <point x="1520" y="1247" type="line"/>
    </contour>
    <contour>
      <point x="331" y="549"/>
      <point x="88" y="484"/>
      <point x="88" y="220" type="curve" smooth="yes"/>
      <point x="88" y="17"/>
      <point x="264" y="-216"/>
      <point x="767" y="-335" type="curve"/>
      <point x="795" y="-234" type="line"/>
      <point x="641" y="-197"/>
      <point x="214" y="-82"/>
      <point x="214" y="208" type="curve" smooth="yes"/>
      <point x="214" y="360"/>
      <point x="318" y="437"/>
      <point x="524" y="437" type="curve" smooth="yes"/>
      <point x="685" y="437"/>
      <point x="772" y="391"/>
      <point x="772" y="290" type="curve" smooth="yes"/>
      <point x="772" y="205"/>
      <point x="699" y="158"/>
      <point x="607" y="141" type="curve"/>
      <point x="636" y="41" type="line"/>
      <point x="779" y="57"/>
      <point x="882" y="155"/>
      <point x="882" y="288" type="curve" smooth="yes"/>
      <point x="882" y="468"/>
      <point x="740" y="549"/>
      <point x="525" y="549" type="curve" smooth="yes"/>
    </contour>
    <contour>
      <point x="679" y="1180" type="line"/>
      <point x="679" y="921" type="line"/>
      <point x="364" y="921" type="line" smooth="yes"/>
      <point x="212" y="921"/>
      <point x="117" y="864"/>
      <point x="115" y="747" type="curve" smooth="yes"/>
      <point x="114" y="651"/>
      <point x="160" y="558"/>
      <point x="244" y="451" type="curve"/>
      <point x="329" y="481" type="line"/>
      <point x="277" y="566"/>
      <point x="238" y="648"/>
      <point x="241" y="720" type="curve" smooth="yes"/>
      <point x="244" y="784"/>
      <point x="293" y="810"/>
      <point x="390" y="810" type="curve" smooth="yes"/>
      <point x="806" y="810" type="line"/>
      <point x="806" y="1180" type="line"/>
    </contour>
    <contour>
      <point x="-22" y="1247" type="line"/>
      <point x="-22" y="1143" type="line"/>
      <point x="993" y="1143" type="line"/>
      <point x="993" y="1247" type="line"/>
    </contour>
    <contour>
      <point x="211" y="-267" type="move" name="nukta"/>
    </contour>
    <contour>
      <point x="1227" y="1168" type="move" name="top"/>
    </contour>
    <contour>
      <point x="954" y="1168" type="move" name="topcandra"/>
    </contour>
    <contour>
      <point x="682" y="-260" type="move" name="bottom"/>
    </contour>
  </outline>
</glyph>
<glyph name="iMatra-deva.10" format="1">
  <advance width="553"/>
  <outline>
    <contour>
      <point x="366" y="1196" type="line"/>
      <point x="255" y="1334"/>
      <point x="233" y="1395"/>
      <point x="233" y="1458" type="curve" smooth="yes"/>
      <point x="233" y="1581"/>
      <point x="313" y="1652"/>
      <point x="645" y="1652" type="curve" smooth="yes"/>
      <point x="1109" y="1652"/>
      <point x="1574" y="1513"/>
      <point x="1959" y="1334" type="curve"/>
      <point x="2009" y="1408" type="line"/>
      <point x="1649" y="1601"/>
      <point x="1122" y="1765"/>
      <point x="629" y="1765" type="curve" smooth="yes"/>
      <point x="246" y="1765"/>
      <point x="106" y="1666"/>
      <point x="106" y="1488" type="curve" smooth="yes"/>
      <point x="106" y="1397"/>
      <point x="143" y="1301"/>
      <point x="258" y="1194" type="curve"/>
    </contour>
    <contour>
      <point x="340" y="0" type="line"/>
      <point x="340" y="1189" type="line"/>
      <point x="214" y="1189" type="line"/>
      <point x="214" y="0" type="line"/>
    </contour>
    <contour>
      <point x="570" y="1143" type="line"/>
      <point x="570" y="1247" type="line"/>
      <point x="-12" y="1247" type="line"/>
      <point x="-12" y="1143" type="line"/>
    </contour>
    <contour>
      <point x="1983" y="1375" type="move" name="imatra"/>
    </contour>
    <contour>
      <point x="1804" y="1353" type="move" name="top"/>
    </contour>
    <contour>
      <point x="2024" y="1319" type="move" name="topcandra"/>
    </contour>
  </outline>
</glyph>
<glyph name="iMatra-deva.25" format="1">
  <advance width="553"/>
  <outline>
    <contour>
      <point x="366" y="1196" type="line"/>
      <point x="259" y="1331"/>
      <point x="233" y="1394"/>
      <point x="233" y="1456" type="curve" smooth="yes"/>
      <point x="233" y="1580"/>
      <point x="322" y="1652"/>
      <point x="715" y="1652" type="curve" smooth="yes"/>
      <point x="1260" y="1652"/>
      <point x="1844" y="1514"/>
      <point x="2289" y="1334" type="curve"/>
      <point x="2339" y="1408" type="line"/>
      <point x="1927" y="1599"/>
      <point x="1277" y="1765"/>
      <point x="703" y="1765" type="curve" smooth="yes"/>
      <point x="256" y="1765"/>
      <point x="106" y="1665"/>
      <point x="106" y="1487" type="curve" smooth="yes"/>
      <point x="106" y="1398"/>
      <point x="144" y="1301"/>
      <point x="258" y="1194" type="curve"/>
    </contour>
    <contour>
      <point x="340" y="0" type="line"/>
      <point x="340" y="1189" type="line"/>
      <point x="214" y="1189" type="line"/>
      <point x="214" y="0" type="line"/>
    </contour>
    <contour>
      <point x="570" y="1143" type="line"/>
      <point x="570" y="1247" type="line"/>
      <point x="-12" y="1247" type="line"/>
      <point x="-12" y="1143" type="line"/>
    </contour>
    <contour>
      <point x="2311" y="1373" type="move" name="imatra"/>
    </contour>
    <contour>
      <point x="2139" y="1353" type="move" name="top"/>
    </contour>
    <contour>
      <point x="2335" y="1319" type="move" name="topcandra"/>
    </contour>
  </outline>
</glyph>
<glyph name="iogonek.d" format="1">
  <advance width="490"/>
  <outline>
    <contour>
      <point x="176" y="0" type="line"/>
      <point x="207" y="0" type="line"/>
      <point x="148" y="-61"/>
      <point x="77" y="-140"/>
      <point x="77" y="-249" type="curve" smooth="yes"/>
      <point x="77" y="-361"/>
      <point x="155" y="-420"/>
      <point x="255" y="-420" type="curve" smooth="yes"/>
      <point x="303" y="-420"/>
      <point x="368" y="-396"/>
      <point x="404" y="-368" type="curve"/>
      <point x="365" y="-296" type="line"/>
      <point x="337" y="-314"/>
      <point x="313" y="-323"/>
      <point x="281" y="-323" type="curve" smooth="yes"/>
      <point x="230" y="-323"/>
      <point x="183" y="-290"/>
      <point x="183" y="-224" type="curve" smooth="yes"/>
      <point x="183" y="-141"/>
      <point x="237" y="-64"/>
      <point x="313" y="0" type="curve"/>
      <point x="313" y="990" type="line"/>
      <point x="176" y="990" type="line"/>
    </contour>
  </outline>
</glyph>
<glyph name="j_tta-deva" format="1">
  <advance width="1954"/>
  <outline>
    <contour>
      <point x="1655" y="1174" type="line"/>
      <point x="1655" y="851" type="line"/>
      <point x="1680" y="893" type="line"/>
      <point x="1627" y="899"/>
      <point x="1531" y="901"/>
      <point x="1465" y="901" type="curve" smooth="yes"/>
      <point x="563" y="899" type="line"/>
      <point x="617" y="793" type="line"/>
      <point x="1212" y="795" type="line"/>
      <point x="1201" y="807" type="line"/>
      <point x="1076" y="743"/>
      <point x="1023" y="625"/>
      <point x="1023" y="480" type="curve" smooth="yes"/>
      <point x="1023" y="169"/>
      <point x="1240" y="36"/>
      <point x="1507" y="36" type="curve" smooth="yes"/>
      <point x="1654" y="36"/>
      <point x="1809" y="72"/>
      <point x="1911" y="135" type="curve"/>
      <point x="1870" y="243" type="line"/>
      <point x="1766" y="189"/>
      <point x="1641" y="152"/>
      <point x="1513" y="152" type="curve" smooth="yes"/>
      <point x="1271" y="152"/>
      <point x="1155" y="252"/>
      <point x="1156" y="480" type="curve" smooth="yes"/>
      <point x="1156" y="698"/>
      <point x="1272" y="780"/>
      <point x="1520" y="787" type="curve" smooth="yes"/>
      <point x="1611" y="789"/>
      <point x="1737" y="784"/>
      <point x="1781" y="783" type="curve"/>
      <point x="1781" y="1174" type="line"/>
    </contour>
    <contour>
      <point x="522" y="812" type="line"/>
      <point x="649" y="749"/>
      <point x="731" y="665"/>
      <point x="731" y="522" type="curve" smooth="yes"/>
      <point x="731" y="403"/>
      <point x="662" y="325"/>
      <point x="526" y="324" type="curve" smooth="yes"/>
      <point x="264" y="323"/>
      <point x="196" y="633"/>
      <point x="171" y="873" type="curve"/>
      <point x="65" y="859" type="line"/>
      <point x="93" y="478"/>
      <point x="220" y="206"/>
      <point x="529" y="206" type="curve" smooth="yes"/>
      <point x="734" y="206"/>
      <point x="857" y="326"/>
      <point x="857" y="506" type="curve" smooth="yes"/>
      <point x="857" y="667"/>
      <point x="779" y="761"/>
      <point x="642" y="829" type="curve"/>
      <point x="562" y="899" type="line"/>
    </contour>
    <contour>
      <point x="-12" y="1247" type="line"/>
      <point x="-12" y="1143" type="line"/>
      <point x="959" y="1143" type="line"/>
      <point x="959" y="1247" type="line"/>
    </contour>
    <contour>
      <point x="925" y="1247" type="line"/>
      <point x="925" y="1143" type="line"/>
      <point x="1967" y="1143" type="line"/>
      <point x="1967" y="1247" type="line"/>
    </contour>
    <contour>
      <point x="1044" y="44" type="move" name="nukta"/>
    </contour>
    <contour>
      <point x="1720" y="1168" type="move" name="top"/>
    </contour>
    <contour>
      <point x="1495" y="1168" type="move" name="topcandra"/>
    </contour>
    <contour>
      <point x="1516" y="87" type="move" name="bottom"/>
    </contour>
  </outline>
</glyph>
<glyph name="k_ca-deva" format="1">
  <advance width="2389"/>
  <outline>
    <contour>
      <point x="557" y="223"/>
      <point x="695" y="288"/>
      <point x="778" y="392" type="curve"/>
      <point x="756" y="513" type="line"/>
      <point x="683" y="406"/>
      <point x="559" y="332"/>
      <point x="418" y="332" type="curve" smooth="yes"/>
      <point x="283" y="332"/>
      <point x="209" y="405"/>
      <point x="209" y="563" type="curve" smooth="yes"/>
      <point x="209" y="728"/>
      <point x="299" y="798"/>
      <point x="440" y="803" type="curve" smooth="yes"/>
      <point x="542" y="808"/>
      <point x="647" y="787"/>
      <point x="769" y="734" type="curve"/>
      <point x="769" y="821" type="line"/>
      <point x="671" y="883"/>
      <point x="552" y="915"/>
      <point x="440" y="915" type="curve" smooth="yes"/>
      <point x="208" y="915"/>
      <point x="79" y="797"/>
      <point x="79" y="568" type="curve" smooth="yes"/>
      <point x="79" y="372"/>
      <point x="192" y="223"/>
      <point x="410" y="223" type="curve" smooth="yes"/>
    </contour>
    <contour>
      <point x="848" y="0" type="line"/>
      <point x="848" y="1196" type="line"/>
      <point x="722" y="1196" type="line"/>
      <point x="722" y="0" type="line"/>
    </contour>
    <contour>
      <point x="914" y="664"/>
      <point x="1010" y="744"/>
      <point x="1106" y="754" type="curve" smooth="yes"/>
      <point x="1139" y="758"/>
      <point x="1168" y="759"/>
      <point x="1198" y="755" type="curve"/>
      <point x="1848" y="755" type="line"/>
      <point x="1848" y="863" type="line"/>
      <point x="1210" y="862" type="line"/>
      <point x="1187" y="870"/>
      <point x="1161" y="874"/>
      <point x="1133" y="875" type="curve" smooth="yes"/>
      <point x="1020" y="877"/>
      <point x="915" y="817"/>
      <point x="815" y="695" type="curve"/>
      <point x="815" y="517" type="line"/>
    </contour>
    <contour>
      <point x="1865" y="207"/>
      <point x="2021" y="280"/>
      <point x="2116" y="401" type="curve"/>
      <point x="2094" y="526" type="line"/>
      <point x="1984" y="381"/>
      <point x="1847" y="316"/>
      <point x="1707" y="320" type="curve" smooth="yes"/>
      <point x="1547" y="326"/>
      <point x="1482" y="415"/>
      <point x="1482" y="513" type="curve" smooth="yes"/>
      <point x="1482" y="665"/>
      <point x="1605" y="763"/>
      <point x="1783" y="755" type="curve"/>
      <point x="1753" y="816" type="line"/>
      <point x="1583" y="792" type="line"/>
      <point x="1444" y="762"/>
      <point x="1351" y="656"/>
      <point x="1351" y="505" type="curve" smooth="yes"/>
      <point x="1351" y="359"/>
      <point x="1464" y="214"/>
      <point x="1698" y="210" type="curve" smooth="yes"/>
    </contour>
    <contour>
      <point x="2402" y="1143" type="line"/>
      <point x="2402" y="1247" type="line"/>
      <point x="-12" y="1247" type="line"/>
      <point x="-12" y="1143" type="line"/>
    </contour>
    <contour>
      <point x="2175" y="0" type="line"/>
      <point x="2175" y="1193" type="line"/>
      <point x="2049" y="1193" type="line"/>
      <point x="2049" y="0" type="line"/>
    </contour>
    <contour>
      <point x="1497" y="44" type="move" name="nukta"/>
    </contour>
    <contour>
      <point x="2111" y="1168" type="move" name="top"/>
    </contour>
    <contour>
      <point x="1810" y="1168" type="move" name="topcandra"/>
    </contour>
    <contour>
      <point x="2112" y="28" type="move" name="bottom"/>
    </contour>
  </outline>
</glyph>
<glyph name="kh-deva" format="1">
  <advance width="1094"/>
  <outline>
    <contour>
      <point x="377" y="1190" type="line"/>
      <point x="377" y="831" type="line" smooth="yes"/>
      <point x="377" y="720"/>
      <point x="350" y="667"/>
      <point x="263" y="665" type="curve" smooth="yes"/>
      <point x="230" y="664"/>
      <point x="193" y="671"/>
      <point x="150" y="706" type="curve"/>
      <point x="65" y="649" type="line"/>
      <point x="237" y="123"/>
      <point x="502" y="-56"/>
      <point x="806" y="-56" type="curve" smooth="yes"/>
      <point x="875" y="-56"/>
      <point x="979" y="-51"/>
      <point x="1067" y="-8" type="curve"/>
      <point x="1037" y="96" type="line"/>
      <point x="981" y="73"/>
      <point x="902" y="55"/>
      <point x="802" y="55" type="curve" smooth="yes"/>
      <point x="544" y="55"/>
      <point x="322" y="236"/>
      <point x="198" y="614" type="curve"/>
      <point x="175" y="585" type="line"/>
      <point x="215" y="571"/>
      <point x="256" y="561"/>
      <point x="298" y="561" type="curve" smooth="yes"/>
      <point x="409" y="561"/>
      <point x="504" y="630"/>
      <point x="504" y="839" type="curve" smooth="yes"/>
      <point x="504" y="1191" type="line"/>
    </contour>
    <contour>
      <point x="-12" y="1247" type="line"/>
      <point x="-12" y="1143" type="line"/>
      <point x="1115" y="1143" type="line"/>
      <point x="1115" y="1247" type="line"/>
    </contour>
    <contour>
      <point x="778" y="892"/>
      <point x="642" y="801"/>
      <point x="642" y="573" type="curve" smooth="yes"/>
      <point x="642" y="405"/>
      <point x="734" y="263"/>
      <point x="947" y="263" type="curve" smooth="yes"/>
      <point x="1099" y="263"/>
      <point x="1222" y="328"/>
      <point x="1297" y="417" type="curve"/>
      <point x="1264" y="523" type="line"/>
      <point x="1204" y="446"/>
      <point x="1105" y="372"/>
      <point x="964" y="372" type="curve" smooth="yes"/>
      <point x="831" y="372"/>
      <point x="772" y="436"/>
      <point x="772" y="574" type="curve" smooth="yes"/>
      <point x="772" y="701"/>
      <point x="820" y="784"/>
      <point x="1004" y="785" type="curve" smooth="yes"/>
      <point x="1088" y="786"/>
      <point x="1183" y="773"/>
      <point x="1290" y="731" type="curve"/>
      <point x="1304" y="829" type="line"/>
      <point x="1248" y="861"/>
      <point x="1118" y="892"/>
      <point x="988" y="892" type="curve" smooth="yes"/>
    </contour>
    <contour>
      <point x="142" y="27" type="move" name="nukta"/>
    </contour>
    <contour>
      <point x="448" y="1168" type="move" name="top"/>
    </contour>
    <contour>
      <point x="824" y="1167" type="move" name="topcandra"/>
    </contour>
    <contour>
      <point x="772" y="0" type="move" name="bottom"/>
    </contour>
  </outline>
</glyph>
<glyph name="kh_ya-deva" format="1">
  <advance width="2244"/>
  <outline>
    <contour>
      <point x="377" y="1190" type="line"/>
      <point x="377" y="831" type="line" smooth="yes"/>
      <point x="377" y="720"/>
      <point x="350" y="667"/>
      <point x="263" y="665" type="curve" smooth="yes"/>
      <point x="230" y="664"/>
      <point x="193" y="671"/>
      <point x="150" y="706" type="curve"/>
      <point x="65" y="649" type="line"/>
      <point x="237" y="123"/>
      <point x="502" y="-56"/>
      <point x="806" y="-56" type="curve" smooth="yes"/>
      <point x="875" y="-56"/>
      <point x="979" y="-51"/>
      <point x="1067" y="-8" type="curve"/>
      <point x="1037" y="96" type="line"/>
      <point x="981" y="73"/>
      <point x="902" y="55"/>
      <point x="802" y="55" type="curve" smooth="yes"/>
      <point x="544" y="55"/>
      <point x="322" y="236"/>
      <point x="198" y="614" type="curve"/>
      <point x="175" y="585" type="line"/>
      <point x="215" y="571"/>
      <point x="256" y="561"/>
      <point x="298" y="561" type="curve" smooth="yes"/>
      <point x="409" y="561"/>
      <point x="504" y="630"/>
      <point x="504" y="839" type="curve" smooth="yes"/>
      <point x="504" y="1191" type="line"/>
    </contour>
    <contour>
      <point x="769" y="939"/>
      <point x="603" y="864"/>
      <point x="602" y="609" type="curve" smooth="yes"/>
      <point x="601" y="431"/>
      <point x="682" y="277"/>
      <point x="915" y="277" type="curve" smooth="yes"/>
      <point x="1064" y="277"/>
      <point x="1201" y="348"/>
      <point x="1259" y="488" type="curve"/>
      <point x="1210" y="590" type="line"/>
      <point x="1169" y="461"/>
      <point x="1057" y="387"/>
      <point x="931" y="387" type="curve" smooth="yes"/>
      <point x="783" y="387"/>
      <point x="731" y="466"/>
      <point x="732" y="613" type="curve" smooth="yes"/>
      <point x="734" y="789"/>
      <point x="837" y="833"/>
      <point x="987" y="833" type="curve" smooth="yes"/>
      <point x="1042" y="833"/>
      <point x="1099" y="829"/>
      <point x="1160" y="811" type="curve"/>
      <point x="1171" y="911" type="line"/>
      <point x="1112" y="931"/>
      <point x="1052" y="939"/>
      <point x="985" y="939" type="curve" smooth="yes"/>
    </contour>
    <contour>
      <point x="-12" y="1247" type="line"/>
      <point x="-12" y="1143" type="line"/>
      <point x="1125" y="1143" type="line"/>
      <point x="1125" y="1247" type="line"/>
    </contour>
    <component base="ya-deva" xOffset="1104"/>
    <contour>
      <point x="153" y="27" type="move" name="nukta"/>
    </contour>
    <contour>
      <point x="459" y="1168" type="move" name="top"/>
    </contour>
    <contour>
      <point x="834" y="1167" type="move" name="topcandra"/>
    </contour>
    <contour>
      <point x="782" y="0" type="move" name="bottom"/>
    </contour>
  </outline>
</glyph>
<glyph name="khh_ya-deva" format="1">
  <advance width="2244"/>
  <outline>
    <component base="nukta-deva" xOffset="-134" yOffset="-1"/>
    <component base="kh_ya-deva"/>
    <contour>
      <point x="142" y="27" type="move" name="nukta"/>
    </contour>
    <contour>
      <point x="448" y="1168" type="move" name="top"/>
    </contour>
    <contour>
      <point x="824" y="1167" type="move" name="topcandra"/>
    </contour>
    <contour>
      <point x="772" y="0" type="move" name="bottom"/>
    </contour>
  </outline>
</glyph>
<glyph name="ldot.a" format="1">
  <advance width="696"/>
  <outline>
    <contour>
      <point x="176" y="0" type="line"/>
      <point x="313" y="0" type="line"/>
      <point x="313" y="1464" type="line"/>
      <point x="176" y="1464" type="line"/>
    </contour>
    <contour>
      <point x="485" y="664" type="curve" smooth="yes"/>
      <point x="485" y="596"/>
      <point x="534" y="551"/>
      <point x="593" y="551" type="curve" smooth="yes"/>
      <point x="651" y="551"/>
      <point x="700" y="596"/>
      <point x="700" y="664" type="curve" smooth="yes"/>
      <point x="700" y="734"/>
      <point x="651" y="779"/>
      <point x="593" y="779" type="curve" smooth="yes"/>
      <point x="534" y="779"/>
      <point x="485" y="734"/>
    </contour>
  </outline>
</glyph>
<glyph name="n-deva" format="1">
  <advance width="557"/>
  <outline>
    <contour>
      <point x="50" y="750" type="line"/>
      <point x="50" y="638" type="line"/>
      <point x="186" y="437" type="line"/>
      <point x="282" y="437"/>
      <point x="300" y="499"/>
      <point x="300" y="575" type="curve" smooth="yes"/>
      <point x="300" y="750" type="line"/>
    </contour>
    <contour>
      <point x="186" y="750" type="line"/>
      <point x="186" y="639" type="line"/>
      <point x="741" y="639" type="line"/>
      <point x="741" y="751" type="line"/>
    </contour>
    <contour>
      <point x="-12" y="1247" type="line"/>
      <point x="-12" y="1143" type="line"/>
      <point x="591" y="1143" type="line"/>
      <point x="591" y="1247" type="line"/>
    </contour>
  </outline>
</glyph>
<glyph name="n_na-deva" format="1">
  <advance width="1093"/>
  <outline>
    <contour>
      <point x="183" y="348" type="line"/>
      <point x="228" y="252" type="line"/>
      <point x="423" y="144" type="line"/>
      <point x="500" y="184"/>
      <point x="490" y="244"/>
      <point x="458" y="305" type="curve" smooth="yes"/>
      <point x="410" y="392" type="line"/>
      <point x="396" y="333" type="line"/>
      <point x="832" y="569" type="line"/>
      <point x="784" y="665" type="line"/>
    </contour>
    <contour>
      <point x="128" y="841" type="line"/>
      <point x="191" y="630" type="line"/>
      <point x="279" y="604"/>
      <point x="311" y="655"/>
      <point x="329" y="723" type="curve" smooth="yes"/>
      <point x="356" y="820" type="line"/>
      <point x="302" y="789" type="line"/>
      <point x="850" y="641" type="line"/>
      <point x="867" y="745" type="line"/>
      <point x="161" y="938" type="line"/>
    </contour>
    <contour>
      <point x="753" y="1191" type="line"/>
      <point x="753" y="0" type="line"/>
      <point x="879" y="0" type="line"/>
      <point x="879" y="1191" type="line"/>
    </contour>
    <contour>
      <point x="-12" y="1247" type="line"/>
      <point x="-12" y="1143" type="line"/>
      <point x="1106" y="1143" type="line"/>
      <point x="1106" y="1247" type="line"/>
    </contour>
    <contour>
      <point x="816" y="1168" type="move" name="top"/>
    </contour>
    <contour>
      <point x="814" y="28" type="move" name="bottom"/>
    </contour>
    <contour>
      <point x="540" y="1168" type="move" name="topcandra"/>
    </contour>
  </outline>
</glyph>
<glyph name="n_t_ra-deva" format="1">
  <advance width="1585"/>
  <outline>
    <contour>
      <point x="1300" y="526" type="line"/>
      <point x="1313" y="589" type="line"/>
      <point x="1116" y="849"/>
      <point x="1011" y="914"/>
      <point x="874" y="914" type="curve" smooth="yes"/>
      <point x="755" y="914"/>
      <point x="638" y="846"/>
      <point x="579" y="744" type="curve"/>
      <point x="639" y="639" type="line"/>
      <point x="704" y="737"/>
      <point x="778" y="799"/>
      <point x="882" y="799" type="curve" smooth="yes"/>
      <point x="1009" y="798"/>
      <point x="1095" y="704"/>
      <point x="1232" y="547" type="curve"/>
      <point x="1240" y="606" type="line"/>
      <point x="728" y="253" type="line"/>
      <point x="799" y="156" type="line"/>
    </contour>
    <contour>
      <point x="1371" y="-1" type="line"/>
      <point x="1371" y="1160" type="line"/>
      <point x="1245" y="1160" type="line"/>
      <point x="1245" y="-1" type="line"/>
    </contour>
    <contour>
      <point x="50" y="750" type="line"/>
      <point x="50" y="638" type="line"/>
      <point x="186" y="437" type="line"/>
      <point x="282" y="437"/>
      <point x="300" y="499"/>
      <point x="300" y="575" type="curve" smooth="yes"/>
      <point x="300" y="750" type="line"/>
    </contour>
    <contour>
      <point x="186" y="750" type="line"/>
      <point x="186" y="639" type="line"/>
      <point x="639" y="639" type="line"/>
      <point x="691" y="751" type="line"/>
    </contour>
    <contour>
      <point x="-12" y="1247" type="line"/>
      <point x="-12" y="1143" type="line"/>
      <point x="1598" y="1143" type="line"/>
      <point x="1598" y="1247" type="line"/>
    </contour>
    <contour>
      <point x="1294" y="1168" type="move" name="top"/>
    </contour>
    <contour>
      <point x="1294" y="28" type="move" name="bottom"/>
    </contour>
    <contour>
      <point x="1073" y="1168" type="move" name="topcandra"/>
    </contour>
  </outline>
</glyph>
<glyph name="na-deva.post2" format="1">
  <advance width="115"/>
  <outline>
    <contour>
      <point x="-62" y="440" type="line"/>
      <point x="-106" y="534" type="line"/>
      <point x="-601" y="173" type="line"/>
      <point x="-543" y="83" type="line"/>
      <point x="-331" y="10" type="line"/>
      <point x="-309" y="31"/>
      <point x="-301" y="50"/>
      <point x="-301" y="69" type="curve" smooth="yes"/>
      <point x="-301" y="89"/>
      <point x="-309" y="109"/>
      <point x="-322" y="128" type="curve" smooth="yes"/>
      <point x="-391" y="225" type="line"/>
      <point x="-409" y="171" type="line"/>
    </contour>
  </outline>
</glyph>
<glyph name="ng_kha-deva" format="1">
  <advance width="1270"/>
  <outline>
    <contour>
      <point x="989" y="843"/>
      <point x="965" y="820"/>
      <point x="965" y="765" type="curve" smooth="yes"/>
      <point x="965" y="711"/>
      <point x="989" y="688"/>
      <point x="1044" y="688" type="curve" smooth="yes"/>
      <point x="1099" y="688"/>
      <point x="1123" y="711"/>
      <point x="1123" y="765" type="curve" smooth="yes"/>
      <point x="1123" y="820"/>
      <point x="1099" y="843"/>
      <point x="1044" y="843" type="curve" smooth="yes"/>
    </contour>
    <contour>
      <point x="-8" y="1247" type="line"/>
      <point x="-8" y="1142" type="line"/>
      <point x="1283" y="1142" type="line"/>
      <point x="1283" y="1247" type="line"/>
    </contour>
    <contour>
      <point x="809" y="1207" type="line"/>
      <point x="809" y="881" type="line"/>
      <point x="932" y="881" type="line"/>
      <point x="932" y="1207" type="line"/>
    </contour>
    <contour>
      <point x="488" y="986" type="line" smooth="yes"/>
      <point x="323" y="986"/>
      <point x="249" y="935"/>
      <point x="249" y="821" type="curve" smooth="yes"/>
      <point x="249" y="722"/>
      <point x="306" y="604"/>
      <point x="370" y="553" type="curve"/>
      <point x="395" y="537"/>
      <point x="408" y="536"/>
      <point x="424" y="538" type="curve" smooth="yes"/>
      <point x="463" y="543"/>
      <point x="629" y="569"/>
      <point x="753" y="569" type="curve" smooth="yes"/>
      <point x="883" y="569"/>
      <point x="930" y="532"/>
      <point x="930" y="452" type="curve" smooth="yes"/>
      <point x="930" y="340"/>
      <point x="833" y="294"/>
      <point x="669" y="294" type="curve" smooth="yes"/>
      <point x="453" y="294"/>
      <point x="340" y="369"/>
      <point x="234" y="476" type="curve"/>
      <point x="170" y="412" type="line"/>
      <point x="305" y="253"/>
      <point x="470" y="196"/>
      <point x="661" y="188" type="curve" smooth="yes"/>
      <point x="862" y="187"/>
      <point x="1045" y="253"/>
      <point x="1045" y="464" type="curve" smooth="yes"/>
      <point x="1045" y="651"/>
      <point x="893" y="678"/>
      <point x="752" y="678" type="curve" smooth="yes"/>
      <point x="628" y="678"/>
      <point x="471" y="658"/>
      <point x="399" y="641" type="curve"/>
      <point x="422" y="629" type="line"/>
      <point x="400" y="650"/>
      <point x="361" y="716"/>
      <point x="361" y="787" type="curve" smooth="yes"/>
      <point x="361" y="856"/>
      <point x="394" y="881"/>
      <point x="514" y="881" type="curve" smooth="yes"/>
      <point x="879" y="881" type="line"/>
      <point x="866" y="986" type="line"/>
    </contour>
    <contour>
      <point x="275" y="332" type="line"/>
      <point x="275" y="66" type="line" smooth="yes"/>
      <point x="275" y="-4"/>
      <point x="251" y="-46"/>
      <point x="183" y="-47" type="curve" smooth="yes"/>
      <point x="159" y="-47"/>
      <point x="130" y="-43"/>
      <point x="98" y="-19" type="curve"/>
      <point x="31" y="-65" type="line"/>
      <point x="158" y="-495"/>
      <point x="387" y="-631"/>
      <point x="631" y="-631" type="curve" smooth="yes"/>
      <point x="684" y="-631"/>
      <point x="753" y="-622"/>
      <point x="794" y="-601" type="curve"/>
      <point x="778" y="-508" type="line"/>
      <point x="739" y="-520"/>
      <point x="688" y="-530"/>
      <point x="632" y="-530" type="curve" smooth="yes"/>
      <point x="416" y="-530"/>
      <point x="236" y="-383"/>
      <point x="144" y="-87" type="curve"/>
      <point x="113" y="-121" type="line"/>
      <point x="146" y="-133"/>
      <point x="179" y="-141"/>
      <point x="214" y="-141" type="curve" smooth="yes"/>
      <point x="309" y="-141"/>
      <point x="387" y="-85"/>
      <point x="387" y="71" type="curve" smooth="yes"/>
      <point x="387" y="332" type="line"/>
    </contour>
    <contour>
      <point x="533" y="77"/>
      <point x="430" y="7"/>
      <point x="430" y="-167" type="curve" smooth="yes"/>
      <point x="430" y="-319"/>
      <point x="526" y="-409"/>
      <point x="669" y="-409" type="curve" smooth="yes"/>
      <point x="776" y="-409"/>
      <point x="861" y="-369"/>
      <point x="918" y="-313" type="curve"/>
      <point x="913" y="-192" type="line"/>
      <point x="862" y="-260"/>
      <point x="784" y="-310"/>
      <point x="682" y="-310" type="curve" smooth="yes"/>
      <point x="588" y="-310"/>
      <point x="546" y="-262"/>
      <point x="546" y="-170" type="curve" smooth="yes"/>
      <point x="546" y="-86"/>
      <point x="579" y="-24"/>
      <point x="708" y="-23" type="curve" smooth="yes"/>
      <point x="769" y="-22"/>
      <point x="835" y="-34"/>
      <point x="915" y="-59" type="curve"/>
      <point x="916" y="21" type="line"/>
      <point x="871" y="51"/>
      <point x="783" y="77"/>
      <point x="694" y="77" type="curve" smooth="yes"/>
    </contour>
    <contour>
      <point x="889" y="333" type="line"/>
      <point x="889" y="-598" type="line"/>
      <point x="1007" y="-598" type="line"/>
      <point x="1007" y="333" type="line"/>
    </contour>
    <contour>
      <point x="870" y="1168" type="move" name="top"/>
    </contour>
    <contour>
      <point x="947" y="-570" type="move" name="bottom"/>
    </contour>
    <contour>
      <point x="648" y="1168" type="move" name="topcandra"/>
    </contour>
  </outline>
</glyph>
<glyph name="nine.onum" format="1">
  <advance width="1047"/>
  <outline>
    <contour>
      <point x="474" y="444" type="curve" smooth="yes"/>
      <point x="292" y="444"/>
      <point x="209" y="582"/>
      <point x="209" y="763" type="curve" smooth="yes"/>
      <point x="209" y="945"/>
      <point x="330" y="1085"/>
      <point x="475" y="1085" type="curve" smooth="yes"/>
      <point x="679" y="1085"/>
      <point x="778" y="921"/>
      <point x="783" y="623" type="curve"/>
      <point x="687" y="490"/>
      <point x="566" y="444"/>
    </contour>
    <contour>
      <point x="149" y="-71" type="line"/>
      <point x="230" y="-153"/>
      <point x="323" y="-200"/>
      <point x="454" y="-200" type="curve" smooth="yes"/>
      <point x="719" y="-200"/>
      <point x="915" y="16"/>
      <point x="915" y="539" type="curve" smooth="yes"/>
      <point x="915" y="991"/>
      <point x="746" y="1196"/>
      <point x="474" y="1196" type="curve" smooth="yes"/>
      <point x="267" y="1196"/>
      <point x="81" y="1016"/>
      <point x="81" y="771" type="curve" smooth="yes"/>
      <point x="81" y="505"/>
      <point x="226" y="335"/>
      <point x="453" y="335" type="curve" smooth="yes"/>
      <point x="580" y="335"/>
      <point x="700" y="396"/>
      <point x="780" y="502" type="curve"/>
      <point x="775" y="70"/>
      <point x="645" y="-84"/>
      <point x="452" y="-84" type="curve" smooth="yes"/>
      <point x="368" y="-84"/>
      <point x="269" y="-44"/>
      <point x="222" y="17" type="curve"/>
    </contour>
  </outline>
</glyph>
<glyph name="one.pnum" format="1">
  <advance width="736"/>
  <outline>
    <contour>
      <point x="346" y="0" type="line"/>
      <point x="482" y="0" type="line"/>
      <point x="482" y="1350" type="line"/>
      <point x="376" y="1350" type="line"/>
      <point x="308" y="1310"/>
      <point x="224" y="1274"/>
      <point x="108" y="1255" type="curve"/>
      <point x="108" y="1160" type="line"/>
      <point x="346" y="1179" type="line"/>
    </contour>
  </outline>
</glyph>
<glyph name="q.sups" format="1">
  <advance width="760"/>
  <outline>
    <contour>
      <point x="542" y="250" type="line"/>
      <point x="648" y="250" type="line"/>
      <point x="648" y="1189" type="line"/>
      <point x="566" y="1189" type="line"/>
      <point x="555" y="1124" type="line"/>
      <point x="547" y="1124" type="line"/>
      <point x="494" y="1176"/>
      <point x="432" y="1205"/>
      <point x="360" y="1205" type="curve" smooth="yes"/>
      <point x="209" y="1205"/>
      <point x="71" y="1075"/>
      <point x="71" y="860" type="curve" smooth="yes"/>
      <point x="71" y="644"/>
      <point x="178" y="516"/>
      <point x="353" y="516" type="curve" smooth="yes"/>
      <point x="428" y="516"/>
      <point x="496" y="552"/>
      <point x="548" y="600" type="curve"/>
      <point x="542" y="479" type="line"/>
    </contour>
    <contour>
      <point x="374" y="607" type="curve" smooth="yes"/>
      <point x="242" y="607"/>
      <point x="181" y="706"/>
      <point x="181" y="862" type="curve" smooth="yes"/>
      <point x="181" y="1015"/>
      <point x="269" y="1115"/>
      <point x="372" y="1115" type="curve" smooth="yes"/>
      <point x="425" y="1115"/>
      <point x="484" y="1092"/>
      <point x="542" y="1042" type="curve"/>
      <point x="542" y="688" type="line"/>
      <point x="484" y="632"/>
      <point x="430" y="607"/>
    </contour>
  </outline>
</glyph>
<glyph name="rakar-deva" format="1">
  <advance width="540"/>
  <outline>
    <contour>
      <point x="334" y="301" type="line"/>
      <point x="209" y="299" type="line"/>
      <point x="626" y="42" type="line"/>
      <point x="686" y="135" type="line"/>
      <point x="270" y="394" type="line"/>
      <point x="-146" y="102" type="line"/>
      <point x="-83" y="14" type="line"/>
    </contour>
    <contour>
      <point x="273" y="358" type="move" name="_bottom"/>
    </contour>
    <contour>
      <point x="305" y="102" type="move" name="bottom"/>
    </contour>
  </outline>
</glyph>
<glyph name="rakar_uuMatra-deva" format="1">
  <advance width="600"/>
  <outline>
    <component base="rakar-deva" xOffset="1" yOffset="-17"/>
    <component base="uuMatra-deva" xOffset="22" yOffset="52"/>
    <contour>
      <point x="272" y="333" type="move" name="_bottom"/>
    </contour>
  </outline>
</glyph>
<glyph name="seven.numr" format="1">
  <advance width="747"/>
  <outline>
    <contour>
      <point x="275" y="547" type="curve"/>
      <point x="390" y="547" type="line"/>
      <point x="406" y="830"/>
      <point x="453" y="1031"/>
      <point x="652" y="1285" type="curve"/>
      <point x="652" y="1346" type="line"/>
      <point x="102" y="1346" type="line"/>
      <point x="102" y="1252" type="line"/>
      <point x="527" y="1252" type="line"/>
      <point x="359" y="1027"/>
      <point x="293" y="830"/>
    </contour>
  </outline>
</glyph>
<glyph name="seven.onum" format="1">
  <advance width="989"/>
  <outline>
    <contour>
      <point x="348" y="-149" type="curve"/>
      <point x="491" y="-149" type="line"/>
      <point x="507" y="368"/>
      <point x="581" y="683"/>
      <point x="888" y="1089" type="curve"/>
      <point x="888" y="1173" type="line"/>
      <point x="90" y="1173" type="line"/>
      <point x="90" y="1053" type="line"/>
      <point x="729" y="1053" type="line"/>
      <point x="473" y="689"/>
      <point x="367" y="362"/>
    </contour>
  </outline>
</glyph>
<glyph name="uni03060309" format="1">
  <advance width="0"/>
  <outline>
    <contour>
      <point x="0" y="1179" type="curve" smooth="yes"/>
      <point x="173" y="1179"/>
      <point x="242" y="1318"/>
      <point x="252" y="1432" type="curve"/>
      <point x="174" y="1432" type="line"/>
      <point x="162" y="1345"/>
      <point x="108" y="1261"/>
      <point x="0" y="1261" type="curve" smooth="yes"/>
      <point x="-108" y="1261"/>
      <point x="-162" y="1345"/>
      <point x="-174" y="1432" type="curve"/>
      <point x="-252" y="1432" type="line"/>
      <point x="-242" y="1318"/>
      <point x="-173" y="1179"/>
    </contour>
    <contour>
      <point x="-51" y="1392" type="line"/>
      <point x="39" y="1415"/>
      <point x="129" y="1453"/>
      <point x="129" y="1557" type="curve" smooth="yes"/>
      <point x="129" y="1654"/>
      <point x="37" y="1699"/>
      <point x="-107" y="1703" type="curve"/>
      <point x="-118" y="1629" type="line"/>
      <point x="-19" y="1625"/>
      <point x="24" y="1599"/>
      <point x="24" y="1541" type="curve" smooth="yes"/>
      <point x="24" y="1496"/>
      <point x="-14" y="1472"/>
      <point x="-67" y="1456" type="curve"/>
    </contour>
  </outline>
</glyph>
<glyph name="uni030F.cap" format="1">
  <advance width="0"/>
  <outline>
    <contour>
      <point x="209" y="1448" type="line" name="hr00"/>
      <point x="73" y="1673" type="line"/>
      <point x="-61" y="1673" type="line"/>
      <point x="106" y="1448" type="line"/>
    </contour>
    <contour>
      <point x="-240" y="1673" type="line"/>
      <point x="-374" y="1673" type="line"/>
      <point x="-205" y="1448" type="line"/>
      <point x="-104" y="1448" type="line"/>
    </contour>
  </outline>
</glyph>
<glyph name="uni1EB3.a" format="1">
  <advance width="1128"/>
  <outline>
    <contour>
      <point x="243" y="494" type="curve" smooth="yes"/>
      <point x="243" y="730"/>
      <point x="379" y="899"/>
      <point x="554" y="899" type="curve" smooth="yes"/>
      <point x="641" y="899"/>
      <point x="722" y="868"/>
      <point x="814" y="785" type="curve"/>
      <point x="814" y="239" type="line"/>
      <point x="723" y="142"/>
      <point x="636" y="92"/>
      <point x="537" y="92" type="curve" smooth="yes"/>
      <point x="349" y="92"/>
      <point x="243" y="247"/>
    </contour>
    <contour>
      <point x="100" y="493" type="curve" smooth="yes"/>
      <point x="100" y="162"/>
      <point x="261" y="-25"/>
      <point x="510" y="-25" type="curve" smooth="yes"/>
      <point x="633" y="-25"/>
      <point x="740" y="43"/>
      <point x="819" y="121" type="curve"/>
      <point x="825" y="121" type="line"/>
      <point x="837" y="0" type="line"/>
      <point x="951" y="0" type="line"/>
      <point x="951" y="990" type="line"/>
      <point x="837" y="990" type="line"/>
      <point x="826" y="895" type="line"/>
      <point x="822" y="895" type="line"/>
      <point x="731" y="973"/>
      <point x="650" y="1015"/>
      <point x="536" y="1015" type="curve" smooth="yes"/>
      <point x="305" y="1015"/>
      <point x="100" y="814"/>
    </contour>
    <contour>
      <point x="571" y="1179" type="curve" smooth="yes"/>
      <point x="743" y="1179"/>
      <point x="812" y="1318"/>
      <point x="824" y="1432" type="curve"/>
      <point x="744" y="1432" type="line"/>
      <point x="732" y="1345"/>
      <point x="678" y="1261"/>
      <point x="571" y="1261" type="curve" smooth="yes"/>
      <point x="462" y="1261"/>
      <point x="409" y="1345"/>
      <point x="397" y="1432" type="curve"/>
      <point x="317" y="1432" type="line"/>
      <point x="329" y="1318"/>
      <point x="398" y="1179"/>
    </contour>
    <contour>
      <point x="520" y="1392" type="line"/>
      <point x="609" y="1415"/>
      <point x="699" y="1453"/>
      <point x="699" y="1557" type="curve" smooth="yes"/>
      <point x="699" y="1654"/>
      <point x="608" y="1699"/>
      <point x="464" y="1703" type="curve"/>
      <point x="453" y="1629" type="line"/>
      <point x="552" y="1625"/>
      <point x="596" y="1599"/>
      <point x="596" y="1541" type="curve" smooth="yes"/>
      <point x="596" y="1496"/>
      <point x="556" y="1472"/>
      <point x="503" y="1456" type="curve"/>
    </contour>
  </outline>
</glyph>
<glyph name="y-deva" format="1">
  <advance width="619"/>
  <outline>
    <contour>
      <point x="186" y="1156" type="line"/>
      <point x="261" y="1075"/>
      <point x="308" y="972"/>
      <point x="308" y="908" type="curve" smooth="yes"/>
      <point x="308" y="820"/>
      <point x="241" y="739"/>
      <point x="48" y="670" type="curve"/>
      <point x="101" y="420"/>
      <point x="249" y="269"/>
      <point x="463" y="269" type="curve" smooth="yes"/>
      <point x="609" y="269"/>
      <point x="738" y="347"/>
      <point x="830" y="444" type="curve"/>
      <point x="815" y="574" type="line"/>
      <point x="727" y="471"/>
      <point x="610" y="383"/>
      <point x="464" y="383" type="curve" smooth="yes"/>
      <point x="320" y="383"/>
      <point x="221" y="461"/>
      <point x="160" y="652" type="curve"/>
      <point x="133" y="586" type="line"/>
      <point x="360" y="665"/>
      <point x="430" y="779"/>
      <point x="430" y="894" type="curve" smooth="yes"/>
      <point x="430" y="971"/>
      <point x="392" y="1064"/>
      <point x="313" y="1160" type="curve"/>
    </contour>
    <contour>
      <point x="-12" y="1247" type="line"/>
      <point x="-12" y="1143" type="line"/>
      <point x="655" y="1143" type="line"/>
      <point x="655" y="1247" type="line"/>
    </contour>
  </outline>
</glyph>
<glyph name="zero.numr" format="1">
  <advance width="747"/>
  <outline>
    <contour>
      <point x="375" y="522" type="curve" smooth="yes"/>
      <point x="555" y="522"/>
      <point x="673" y="677"/>
      <point x="673" y="948" type="curve" smooth="yes"/>
      <point x="673" y="1219"/>
      <point x="555" y="1370"/>
      <point x="375" y="1370" type="curve" smooth="yes"/>
      <point x="193" y="1370"/>
      <point x="76" y="1219"/>
      <point x="76" y="948" type="curve" smooth="yes"/>
      <point x="76" y="677"/>
      <point x="193" y="522"/>
    </contour>
    <contour>
      <point x="375" y="612" type="curve" smooth="yes"/>
      <point x="259" y="612"/>
      <point x="184" y="730"/>
      <point x="184" y="948" type="curve" smooth="yes"/>
      <point x="184" y="1169"/>
      <point x="259" y="1282"/>
      <point x="375" y="1282" type="curve" smooth="yes"/>
      <point x="488" y="1282"/>
      <point x="564" y="1169"/>
      <point x="564" y="948" type="curve" smooth="yes"/>
      <point x="564" y="730"/>
      <point x="488" y="612"/>
    </contour>
  </outline>
</glyph>
<glyph name="zero.onum" format="1">
  <advance width="1047"/>
  <outline>
    <contour>
      <point x="517" y="-25" type="curve" smooth="yes"/>
      <point x="772" y="-25"/>
      <point x="925" y="176"/>
      <point x="925" y="588" type="curve" smooth="yes"/>
      <point x="925" y="998"/>
      <point x="772" y="1196"/>
      <point x="517" y="1196" type="curve" smooth="yes"/>
      <point x="263" y="1196"/>
      <point x="110" y="998"/>
      <point x="110" y="588" type="curve" smooth="yes"/>
      <point x="110" y="176"/>
      <point x="263" y="-25"/>
    </contour>
    <contour>
      <point x="517" y="87" type="curve" smooth="yes"/>
      <point x="345" y="87"/>
      <point x="244" y="270"/>
      <point x="244" y="588" type="curve" smooth="yes"/>
      <point x="244" y="905"/>
      <point x="345" y="1083"/>
      <point x="517" y="1083" type="curve" smooth="yes"/>
      <point x="690" y="1083"/>
      <point x="790" y="905"/>
      <point x="790" y="588" type="curve" smooth="yes"/>
      <point x="790" y="270"/>
      <point x="690" y="87"/>
    </contour>
  </outline>
</glyph>
